<svg width="107" height="107" viewBox="0 0 107 107" fill="none" xmlns="http://www.w3.org/2000/svg">
<circle cx="53.918" cy="53.6953" r="51.95" stroke="url(#paint0_linear_2980_10608)" stroke-width="2.1"/>
<path d="M3.91797 51.3328L1.55547 51.3328L1.55547 56.0578L3.91797 56.0578L3.91797 51.3328ZM8.91797 56.0578C10.2227 56.0578 11.2805 55.0001 11.2805 53.6953C11.2805 52.3905 10.2227 51.3328 8.91797 51.3328L8.91797 56.0578ZM3.91797 56.0578L8.91797 56.0578L8.91797 51.3328L3.91797 51.3328L3.91797 56.0578Z" fill="#EEEEEE"/>
<path d="M103.918 51.3328L106.28 51.3328L106.28 56.0578L103.918 56.0578L103.918 51.3328ZM98.918 56.0578C97.6132 56.0578 96.5555 55.0001 96.5555 53.6953C96.5555 52.3905 97.6132 51.3328 98.918 51.3328L98.918 56.0578ZM103.918 56.0578L98.918 56.0578L98.918 51.3328L103.918 51.3328L103.918 56.0578Z" fill="#EEEEEE"/>
<path d="M58.2805 4.69531V2.33281H53.5555V4.69531H58.2805ZM53.5555 9.69531C53.5555 11.0001 54.6132 12.0578 55.918 12.0578C57.2227 12.0578 58.2805 11.0001 58.2805 9.69531H53.5555ZM53.5555 4.69531V9.69531H58.2805V4.69531H53.5555Z" fill="#9A9A9A"/>
<path d="M56.2805 102.695V105.058H51.5555V102.695H56.2805ZM51.5555 97.6953C51.5555 96.3905 52.6132 95.3328 53.918 95.3328C55.2227 95.3328 56.2805 96.3905 56.2805 97.6953H51.5555ZM51.5555 102.695V97.6953H56.2805V102.695H51.5555Z" fill="#B5B5B5"/>
<defs>
<linearGradient id="paint0_linear_2980_10608" x1="53.918" y1="0.695312" x2="53.918" y2="106.695" gradientUnits="userSpaceOnUse">
<stop stop-color="#999999"/>
<stop offset="0.475" stop-color="white" stop-opacity="0.96"/>
<stop offset="0.99" stop-color="white" stop-opacity="0.67"/>
</linearGradient>
</defs>
</svg>
