<svg width="126" height="126" viewBox="0 0 126 126" fill="none" xmlns="http://www.w3.org/2000/svg">
<mask id="path-1-inside-1_166_787" fill="white">
<path d="M125.721 66.3802C124.891 81.7896 118.417 96.3541 107.534 107.295C96.6518 118.237 82.1223 124.789 66.7175 125.702L66.4818 121.726C80.9097 120.87 94.5177 114.734 104.71 104.486C114.903 94.2389 120.966 80.5981 121.743 66.1658L125.721 66.3802Z"/>
</mask>
<path d="M125.721 66.3802C124.891 81.7896 118.417 96.3541 107.534 107.295C96.6518 118.237 82.1223 124.789 66.7175 125.702L66.4818 121.726C80.9097 120.87 94.5177 114.734 104.71 104.486C114.903 94.2389 120.966 80.5981 121.743 66.1658L125.721 66.3802Z" stroke="url(#paint0_linear_166_787)" stroke-width="2" mask="url(#path-1-inside-1_166_787)"/>
<mask id="path-2-inside-2_166_787" fill="white">
<path d="M125.781 61.0362C125.357 47.4899 120.563 34.4441 112.115 23.8467C103.666 13.2492 92.0165 5.66869 78.9053 2.23692L77.8966 6.09043C90.1764 9.30456 101.087 16.4044 109 26.3297C116.913 36.2551 121.403 48.4736 121.8 61.1608L125.781 61.0362Z"/>
</mask>
<path d="M125.781 61.0362C125.357 47.4899 120.563 34.4441 112.115 23.8467C103.666 13.2492 92.0165 5.66869 78.9053 2.23692L77.8966 6.09043C90.1764 9.30456 101.087 16.4044 109 26.3297C116.913 36.2551 121.403 48.4736 121.8 61.1608L125.781 61.0362Z" stroke="url(#paint1_linear_166_787)" stroke-width="2" mask="url(#path-2-inside-2_166_787)"/>
<mask id="path-3-inside-3_166_787" fill="white">
<path d="M0.280934 66.3802C1.13465 82.2246 7.9535 97.1589 19.3672 108.182C30.7809 119.205 45.9436 125.499 61.8082 125.801L61.8838 121.818C47.0253 121.536 32.8242 115.64 22.1344 105.317C11.4445 94.9927 5.05806 81.0055 4.25849 66.1658L0.280934 66.3802Z"/>
</mask>
<path d="M0.280934 66.3802C1.13465 82.2246 7.9535 97.1589 19.3672 108.182C30.7809 119.205 45.9436 125.499 61.8082 125.801L61.8838 121.818C47.0253 121.536 32.8242 115.64 22.1344 105.317C11.4445 94.9927 5.05806 81.0055 4.25849 66.1658L0.280934 66.3802Z" stroke="url(#paint2_linear_166_787)" stroke-width="2" mask="url(#path-3-inside-3_166_787)"/>
<mask id="path-4-inside-4_166_787" fill="white">
<path d="M0.220701 61.0362C0.724773 44.9314 7.39859 29.6363 18.8621 18.3135C30.3257 6.99069 45.7021 0.506315 61.8119 0.201218L61.8873 4.18383C46.7992 4.46957 32.3978 10.5427 21.6613 21.1475C10.9248 31.7522 4.67418 46.0774 4.20207 61.1608L0.220701 61.0362Z"/>
</mask>
<path d="M0.220701 61.0362C0.724773 44.9314 7.39859 29.6363 18.8621 18.3135C30.3257 6.99069 45.7021 0.506315 61.8119 0.201218L61.8873 4.18383C46.7992 4.46957 32.3978 10.5427 21.6613 21.1475C10.9248 31.7522 4.67418 46.0774 4.20207 61.1608L0.220701 61.0362Z" stroke="url(#paint3_linear_166_787)" stroke-width="2" mask="url(#path-4-inside-4_166_787)"/>
<defs>
<linearGradient id="paint0_linear_166_787" x1="63.0007" y1="0.189453" x2="63.0007" y2="125.812" gradientUnits="userSpaceOnUse">
<stop stop-color="#999999"/>
<stop offset="0.475" stop-color="white" stop-opacity="0.96"/>
<stop offset="0.99" stop-color="white" stop-opacity="0.67"/>
</linearGradient>
<linearGradient id="paint1_linear_166_787" x1="63.0007" y1="125.813" x2="63.0007" y2="0.189957" gradientUnits="userSpaceOnUse">
<stop stop-color="#999999"/>
<stop offset="0.475" stop-color="white" stop-opacity="0.96"/>
<stop offset="0.99" stop-color="white" stop-opacity="0.67"/>
</linearGradient>
<linearGradient id="paint2_linear_166_787" x1="63.0012" y1="0.189453" x2="63.0012" y2="125.812" gradientUnits="userSpaceOnUse">
<stop stop-color="#999999"/>
<stop offset="0.475" stop-color="white" stop-opacity="0.96"/>
<stop offset="0.99" stop-color="white" stop-opacity="0.67"/>
</linearGradient>
<linearGradient id="paint3_linear_166_787" x1="63.0012" y1="125.813" x2="63.0012" y2="0.189957" gradientUnits="userSpaceOnUse">
<stop stop-color="#999999"/>
<stop offset="0.475" stop-color="white" stop-opacity="0.96"/>
<stop offset="0.99" stop-color="white" stop-opacity="0.67"/>
</linearGradient>
</defs>
</svg>
