<svg width="41" height="41" viewBox="0 0 41 41" fill="none" xmlns="http://www.w3.org/2000/svg">
<g id="tabler:planet">
<g id="Group">
<path id="Vector" d="M31.6942 23.3982C35.5138 26.9612 37.6037 30.0643 36.8471 31.5642C35.6055 33.9973 27.2095 31.1326 18.0903 25.168C8.97434 19.2035 2.58487 12.3958 3.82477 9.96429C4.59804 8.44775 8.70103 9.22435 13.4956 11.3058" stroke="#E4E4E4" stroke-width="3.33306" stroke-linecap="round" stroke-linejoin="round"/>
<path id="Vector_2" d="M8.66992 20.7653C8.66992 22.2973 8.97166 23.8142 9.55792 25.2296C10.1442 26.6449 11.0035 27.931 12.0867 29.0142C13.17 30.0975 14.456 30.9568 15.8714 31.543C17.2867 32.1293 18.8037 32.431 20.3356 32.431C21.8676 32.431 23.3846 32.1293 24.7999 31.543C26.2153 30.9568 27.5013 30.0975 28.5845 29.0142C29.6678 27.931 30.5271 26.6449 31.1134 25.2296C31.6996 23.8142 32.0013 22.2973 32.0013 20.7653C32.0013 19.2334 31.6996 17.7164 31.1134 16.301C30.5271 14.8857 29.6678 13.5997 28.5845 12.5164C27.5013 11.4332 26.2153 10.5739 24.7999 9.98761C23.3846 9.40135 21.8676 9.09961 20.3356 9.09961C18.8037 9.09961 17.2867 9.40135 15.8714 9.98761C14.456 10.5739 13.17 11.4332 12.0867 12.5164C11.0035 13.5997 10.1442 14.8857 9.55792 16.301C8.97166 17.7164 8.66992 19.2334 8.66992 20.7653Z" stroke="#E4E4E4" stroke-width="3.33306" stroke-linecap="round" stroke-linejoin="round"/>
</g>
</g>
</svg>
