<?xml version="1.0" encoding="UTF-8"?>
<svg version="1.1" xmlns="http://www.w3.org/2000/svg" width="5000" height="5000">
<path d="M0 0 C3.86917491 0.40817669 5.80955467 2.3876499 8.5625 5 C12.11795875 8.29963279 15.72256855 11.4566226 19.5 14.5 C23.0947765 17.4081338 26.58260628 20.38541332 30 23.5 C33.31989486 26.52282421 36.69764112 29.42512161 40.1875 32.25 C46.62711993 37.46518515 52.85455403 42.91331752 59.10351562 48.35351562 C62.07855189 50.93637409 65.0694406 53.50056914 68.0625 56.0625 C68.92258667 56.79883667 68.92258667 56.79883667 69.80004883 57.55004883 C70.95530518 58.53885203 72.11065976 59.52754049 73.26611328 60.51611328 C76.1789405 63.00895527 79.08931198 65.504661 82 68 C82.8652832 68.7415332 82.8652832 68.7415332 83.74804688 69.49804688 C86.67818993 72.00913036 89.60746996 74.52120868 92.53515625 77.03515625 C98.17421656 81.87576555 103.82213425 86.70493633 109.5 91.5 C115.77168949 96.7965589 122.00591071 102.13604423 128.23388672 107.48388672 C131.15442275 109.99100985 134.07732311 112.49537328 137 115 C138.16667816 115.99998659 139.33334482 116.9999866 140.5 118 C141.0775 118.495 141.655 118.99 142.25 119.5 C147.5 124 147.5 124 149.25024414 125.50024414 C150.41605104 126.49948396 151.58190386 127.49867023 152.74780273 128.49780273 C155.67800398 131.00899461 158.60738291 133.52113393 161.53515625 136.03515625 C167.17421656 140.87576555 172.82213425 145.70493633 178.5 150.5 C184.77168949 155.7965589 191.00591071 161.13604423 197.23388672 166.48388672 C200.15442275 168.99100985 203.07732311 171.49537328 206 174 C207.16667816 174.99998659 208.33334482 175.9999866 209.5 177 C210.0775 177.495 210.655 177.99 211.25 178.5 C216.5 183 216.5 183 218.25024414 184.50024414 C219.41605104 185.49948396 220.58190386 186.49867023 221.74780273 187.49780273 C224.67800398 190.00899461 227.60738291 192.52113393 230.53515625 195.03515625 C236.17421656 199.87576555 241.82213425 204.70493633 247.5 209.5 C253.77168949 214.7965589 260.00591071 220.13604423 266.23388672 225.48388672 C269.15442275 227.99100985 272.07732311 230.49537328 275 233 C276.16667816 233.99998659 277.33334482 234.9999866 278.5 236 C279.36625 236.7425 279.36625 236.7425 280.25 237.5 C285.5 242 285.5 242 287.25024414 243.50024414 C288.41605104 244.49948396 289.58190386 245.49867023 290.74780273 246.49780273 C293.67800398 249.00899461 296.60738291 251.52113393 299.53515625 254.03515625 C305.17421656 258.87576555 310.82213425 263.70493633 316.5 268.5 C322.77168949 273.7965589 329.00591071 279.13604423 335.23388672 284.48388672 C338.73060204 287.48562879 342.23035014 290.48383513 345.72998047 293.48217773 C348.76095253 296.07936164 351.79006371 298.67867233 354.81640625 301.28125 C355.75709961 302.08949219 355.75709961 302.08949219 356.71679688 302.9140625 C357.91009659 303.93941633 359.10284338 304.96541414 360.29492188 305.9921875 C360.83826172 306.45882812 361.38160156 306.92546875 361.94140625 307.40625 C362.41263916 307.81166016 362.88387207 308.21707031 363.36938477 308.63476562 C365.07284059 310.14177121 365.07284059 310.14177121 367.57981062 311.48186141 C370.70218189 314.73060039 370.54053477 316.43135663 370.47506171 320.79313677 C370.43499431 321.73770072 370.3949269 322.68226467 370.35364532 323.65545177 C370.3310133 324.68248563 370.30838128 325.70951949 370.28506345 326.76767559 C370.23050059 329.08243859 370.16380307 331.39693632 370.08722395 333.71107558 C369.95680735 337.65677557 369.85615725 341.60271491 369.76313829 345.54942197 C369.63376365 350.93441083 369.49500592 356.31904087 369.34746701 361.70356247 C369.00298096 374.33291514 368.74125421 386.96346968 368.49168396 399.59501076 C368.44748495 401.82185246 368.4032702 404.04869386 368.35904038 406.27553495 C368.29033028 409.73626652 368.22164393 413.19699853 368.15310626 416.65773351 C367.87940771 430.4410297 367.5897421 444.22398808 367.30015564 458.00695801 C367.24395696 460.68544111 367.18776592 463.36392437 367.13158548 466.04240785 C367.04536102 470.15277431 366.95911693 474.26314036 366.87281051 478.3735051 C366.66296761 488.36815839 366.45384723 498.36282663 366.24514961 508.35750389 C366.22238451 509.44771021 366.22238451 509.44771021 366.19915951 510.5599409 C366.13731923 513.52152493 366.07548311 516.48310904 366.01365227 519.44469327 C365.40791585 548.45828077 364.80056731 577.47183435 364.19244279 606.48537188 C364.08939503 611.40176666 363.98635021 616.3181615 363.88331032 621.23455644 C363.86623897 622.04909015 363.84916762 622.86362386 363.83157896 623.70284041 C363.43377401 642.6841493 363.03659984 661.66547138 362.63951111 680.64679527 C362.60471849 682.30988714 362.56992576 683.972979 362.53513291 685.63607087 C362.39527984 692.32103595 362.25542835 699.00600107 362.11557953 705.69096624 C361.72483616 724.36892135 361.33399579 743.04687442 360.94307709 761.72482586 C360.91639045 762.99990379 360.91639045 762.99990379 360.88916469 764.30074087 C360.32346223 791.32944548 359.75732501 818.35814096 359.19089508 845.38683033 C359.17256032 846.26172588 359.15422555 847.13662144 359.13533519 848.03802897 C358.83768727 862.24110556 358.54002058 876.44418175 358.24235196 890.64725791 C357.06061631 947.03311772 355.88044781 1003.41901012 354.70166016 1059.80493164 C354.40415281 1074.03579894 354.10664149 1088.26666616 353.80910492 1102.49753284 C353.79078049 1103.37397393 353.77245607 1104.25041501 353.75357635 1105.15341491 C353.18844247 1132.18301038 352.62289969 1159.21259727 352.05692291 1186.2421751 C352.03914523 1187.09119248 352.02136754 1187.94020985 352.00305113 1188.81495503 C351.6127363 1207.45519149 351.22231817 1226.09542579 350.83180633 1244.73565813 C350.69208272 1251.40508669 350.55236505 1258.07451537 350.41264955 1264.74394411 C350.3778981 1266.40282352 350.34314624 1268.06170292 350.30839395 1269.72058232 C349.75615805 1296.08132151 349.20483386 1322.44207966 348.65395417 1348.80284722 C348.08383988 1376.08358912 347.51248537 1403.36430481 346.9397434 1430.64499167 C346.87810756 1433.58103665 346.81647692 1436.51708174 346.75485039 1439.45312691 C346.7397272 1440.17361098 346.72460402 1440.89409505 346.70902255 1441.63641198 C346.47076493 1452.98865096 346.23360285 1464.34091255 345.99690981 1475.69318425 C345.76348893 1486.88738144 345.52884075 1498.0815524 345.29301889 1509.27569931 C345.16721218 1515.24914362 345.04190281 1521.22259712 344.91807503 1527.19608281 C344.40765766 1551.80220285 343.85188319 1576.40302571 343 1601 C341.68 1601.33 340.36 1601.66 339 1602 C336.39481914 1594.73040903 334.67787093 1587.45004282 333.10620117 1579.89550781 C332.82909828 1578.58277426 332.55152535 1577.27013986 332.27352619 1575.95759583 C331.51672106 1572.3780084 330.76640003 1568.79708889 330.01713562 1565.21591663 C329.21006234 1561.36444832 328.39674824 1557.51429795 327.58410645 1553.66400146 C326.18187639 1547.01642021 324.7832478 1540.36808993 323.38705444 1533.71923828 C321.1650749 1523.1384686 318.93548088 1512.5593111 316.7043457 1501.98046875 C316.32522234 1500.18274729 315.94610088 1498.38502542 315.56698132 1496.58730316 C314.9951484 1493.87577892 314.42330745 1491.16425637 313.85143179 1488.45274115 C312.69450513 1482.96702643 311.53814831 1477.48119195 310.38224429 1471.99526167 C305.31915256 1447.9659634 300.2370233 1423.94081223 295.125 1399.921875 C294.96925176 1399.19008506 294.81350352 1398.45829512 294.65303564 1397.70432973 C292.79344749 1388.9675695 290.93257945 1380.23108211 289.07117712 1371.49470824 C286.28548506 1358.42001686 283.50209853 1345.34483436 280.71855688 1332.26968503 C280.25879374 1330.11007784 279.79900274 1327.95047658 279.3392067 1325.79087639 C272.70857364 1294.64702996 266.09917497 1263.49869031 259.49439049 1232.34935331 C258.77545937 1228.95877801 258.05649132 1225.56821054 257.33752441 1222.17764282 C257.1951694 1221.50631044 257.05281438 1220.83497805 256.90614557 1220.14330226 C256.47421468 1218.10635832 256.04228315 1216.0694145 255.61035156 1214.0324707 C255.46749253 1213.35876179 255.3246335 1212.68505287 255.17744541 1211.99092853 C254.45339297 1208.57637019 253.72933829 1205.16181233 253.00527954 1201.74725533 C252.42317931 1199.00215381 251.84108809 1196.25705038 251.25900269 1193.51194572 C244.15498102 1160.00974448 237.04350889 1126.50912545 229.93039131 1093.00885439 C229.43763237 1090.68812344 228.94488173 1088.36739072 228.45213318 1086.04665756 C221.31335462 1052.42476033 214.17230008 1018.80334845 207.0234375 985.18359375 C206.88329106 984.52450854 206.74314461 983.86542333 206.59875131 983.18636584 C204.2264851 972.03004472 201.85404408 960.87376078 199.48151779 949.71749496 C190.34679764 906.7633587 181.22863375 863.80573523 172.11920547 820.84622955 C165.49225637 789.59401276 158.86310383 758.34227184 152.21875 727.09375 C152.07985226 726.44051128 151.94095451 725.78727257 151.79784775 725.11423874 C149.69885117 715.242765 147.59945946 705.3713753 145.5 695.5 C136.17273127 651.64444008 126.86046369 607.7857225 117.55989838 563.92449188 C115.36304386 553.56420324 113.16607058 543.2039398 110.96875 532.84375 C110.82405399 532.16151997 110.67935799 531.47928993 110.53027725 530.77638626 C104.00409333 500.00656923 97.46310424 469.2399055 90.91977119 438.47373152 C81.97408246 396.41179863 73.03911308 354.34761113 64.1179924 312.28046036 C62.67255153 305.46454905 61.22702031 298.64865689 59.78149414 291.83276367 C59.63756277 291.15410346 59.49363139 290.47544325 59.34533846 289.77621758 C58.32007867 284.94195559 57.29480772 280.10769596 56.26953125 275.2734375 C56.12365043 274.58559528 55.97776961 273.89775305 55.82746816 273.18906713 C49.20420093 241.9597886 42.57864376 210.73099628 35.94961071 179.50294113 C34.28525627 171.66243634 32.62112883 163.82188353 30.95761108 155.98120117 C24.8426527 127.15983709 18.72750173 98.33862291 12.54039574 69.53264046 C11.83494102 66.24780288 11.13005945 62.96284285 10.42536926 59.67784119 C9.978991 57.59731678 9.5325955 55.51679607 9.08618164 53.4362793 C8.87233228 52.43962218 8.65848291 51.44296507 8.43815327 50.41610622 C7.21426714 44.71493602 5.98556642 39.01483113 4.7529068 33.31555176 C4.02164799 29.93012625 3.29437293 26.54385423 2.56818771 23.15733719 C2.23918991 21.62760581 1.90839408 20.09825979 1.57561111 18.56934738 C1.12982656 16.52075016 0.69024905 14.4709166 0.25219727 12.4206543 C0.00816666 11.29104782 -0.23586395 10.16144135 -0.48728943 8.99760437 C-0.95837381 6.24337094 -1.18139749 3.78510529 -1 1 C-0.67 0.67 -0.34 0.34 0 0 Z " fill="#FFFFFF" transform="translate(1769,2082)"/>
<path d="M0 0 C1.32 0 2.64 0 4 0 C9.58176998 17.35147762 15.07170035 34.73047762 20.50222015 52.12984085 C21.13928712 54.17077072 21.77667008 56.2116017 22.41412354 58.25241089 C31.82595437 88.38681022 41.16854793 118.54261367 50.50260735 148.70117474 C55.1827984 163.82284968 59.86779852 178.94303432 64.55301666 194.06315231 C65.25003424 196.3126105 65.9470142 198.56208033 66.64398193 200.81155396 C73.11846697 221.70795366 79.59904805 242.60245164 86.08508301 263.49526978 C92.63363248 284.5899253 99.17204296 305.68771226 105.70825195 326.78619385 C112.13332631 347.52584184 118.5626399 368.26416123 125 389 C131.91043307 411.25968777 138.81103719 433.52240781 145.70825195 455.78619385 C152.13332632 476.52584187 158.5626931 497.2641447 165 518 C171.58968337 539.22720147 178.17206436 560.45665583 184.75 581.6875 C184.97970993 582.42890102 185.20941986 583.17030205 185.4460907 583.93416977 C189.20041932 596.0514984 192.95438602 608.16893915 196.70831299 620.28639221 C200.22203991 631.62848043 203.73589212 642.97052981 207.25 654.3125 C207.4800322 655.05494839 207.71006439 655.79739677 207.94706726 656.5623436 C214.65373167 678.20851923 221.36633638 699.85284071 228.08508301 721.49526978 C234.86363925 743.33083956 241.63157811 765.16969004 248.3968811 787.0093689 C253.35792807 803.02451432 258.3209545 819.03903683 263.29296875 835.05078125 C263.7152625 836.41083729 264.13755459 837.77089384 264.55984497 839.13095093 C266.52422023 845.45731069 268.4892119 851.78347834 270.45507812 858.109375 C271.15105599 860.35025597 271.84702033 862.59114114 272.54296875 864.83203125 C272.85131149 865.82350662 273.15965424 866.81498199 273.4773407 867.83650208 C274.04889648 869.67743424 274.61797652 871.51913751 275.18417358 873.36172485 C275.73929748 875.15692241 276.30517532 876.94882203 276.88052368 878.73764038 C277.15625214 879.61143341 277.43198059 880.48522644 277.71606445 881.38549805 C277.96330765 882.15484177 278.21055084 882.92418549 278.46528625 883.71684265 C279.29204948 887.24701286 279.48472055 889.98796748 277.90527344 893.28564453 C277.39512695 894.06020996 276.88498047 894.83477539 276.359375 895.6328125 C275.78944824 896.51155029 275.21952148 897.39028809 274.63232422 898.2956543 C274.01115723 899.22933838 273.38999023 900.16302246 272.75 901.125 C271.45530812 903.1130071 270.16104443 905.10129313 268.8671875 907.08984375 C267.88830566 908.58233643 267.88830566 908.58233643 266.88964844 910.10498047 C264.1711378 914.26985116 261.52071055 918.47615967 258.875 922.6875 C257.8934978 924.24365905 256.91172744 925.799649 255.9296875 927.35546875 C255.20604004 928.50281494 255.20604004 928.50281494 254.46777344 929.67333984 C252.48141523 932.82204139 250.49333286 935.96965243 248.50512695 939.1171875 C247.5009354 940.70695385 246.49686657 942.29679773 245.49291992 943.88671875 C243.03217884 947.78365741 240.57022602 951.67981885 238.10546875 955.57421875 C232.58346323 964.30269974 227.09162374 973.04921539 221.625 981.8125 C216.22160675 990.47320429 210.76640211 999.09887706 205.27441406 1007.70361328 C200.29217934 1015.51902086 195.37691694 1023.37526967 190.47143555 1031.23901367 C185.16260639 1039.74766611 179.81504866 1048.23123107 174.45166016 1056.70556641 C171.96526467 1060.63545958 169.48287225 1064.56788032 167 1068.5 C166.00001836 1070.08334493 165.00001838 1071.66667828 164 1073.25 C163.505 1074.03375 163.01 1074.8175 162.5 1075.625 C158 1082.75 158 1082.75 156.50073242 1085.1237793 C155.49821757 1086.71113526 154.49577646 1088.29853779 153.4934082 1089.88598633 C151.03248037 1093.78315395 148.57038288 1097.67957101 146.10546875 1101.57421875 C140.58346323 1110.30269974 135.09162374 1119.04921539 129.625 1127.8125 C124.22020998 1136.47544308 118.76385103 1145.10351251 113.27001953 1153.71020508 C108.97373718 1160.44901021 104.72781462 1167.21806232 100.5 1174 C95.70510145 1181.69161046 90.87675579 1189.36002455 86 1197 C80.43817234 1205.71405446 74.94289382 1214.46797906 69.47143555 1223.23901367 C64.16260639 1231.74766611 58.81504866 1240.23123107 53.45166016 1248.70556641 C50.96526467 1252.63545958 48.48287225 1256.56788032 46 1260.5 C45.00001836 1262.08334493 44.00001838 1263.66667828 43 1265.25 C42.2575 1266.425625 42.2575 1266.425625 41.5 1267.625 C37 1274.75 37 1274.75 35.50073242 1277.1237793 C34.49821757 1278.71113526 33.49577646 1280.29853779 32.4934082 1281.88598633 C30.03248037 1285.78315395 27.57038288 1289.67957101 25.10546875 1293.57421875 C19.58346299 1302.30270012 14.0916792 1311.04924971 8.625 1319.8125 C2.02472971 1330.39023686 -4.62546548 1340.93604012 -11.3671875 1351.42431641 C-12.53907769 1353.27291712 -13.68746648 1355.13649569 -14.8203125 1357.00927734 C-15.72910156 1358.49548584 -15.72910156 1358.49548584 -16.65625 1360.01171875 C-17.20087891 1360.91752686 -17.74550781 1361.82333496 -18.30664062 1362.7565918 C-20.06517244 1365.08634221 -21.3078329 1365.96548268 -24 1367 C-25.92519215 1365.07480785 -25.12712489 1362.19390622 -25.13539619 1359.63173397 C-25.13299407 1358.7136336 -25.13059194 1357.79553323 -25.12811702 1356.84961164 C-25.12912681 1355.88858776 -25.1301366 1354.92756389 -25.13117699 1353.93741807 C-25.13223715 1350.72097865 -25.12495295 1347.50462664 -25.11665249 1344.28819847 C-25.1151426 1343.17093245 -25.11363271 1342.05366642 -25.11207707 1340.90254385 C-25.0756822 1315.95722259 -24.67304276 1291.02123929 -24.2025996 1266.08094253 C-24.09460055 1260.30532542 -23.99104171 1254.52962939 -23.88726729 1248.75393506 C-23.67306799 1236.84069269 -23.45467861 1224.92753072 -23.23382378 1213.01441002 C-23.01073701 1200.97992849 -22.78970441 1188.9454117 -22.57106018 1176.91084862 C-22.55713202 1176.14428371 -22.54320386 1175.3777188 -22.52885364 1174.58792466 C-22.45781171 1170.67748487 -22.38680198 1166.76704449 -22.3158035 1162.85660391 C-21.80460356 1134.7044809 -21.28903155 1106.55243936 -20.77105904 1078.40044022 C-20.25819399 1050.52535367 -19.74722875 1022.65023333 -19.23875237 994.77506638 C-19.22289055 993.90555454 -19.20702874 993.03604271 -19.19068626 992.14018203 C-19.0457743 984.19636504 -18.90088476 976.25254765 -18.75602232 968.30872976 C-18.39598765 948.56555309 -18.03566027 928.82238176 -17.6751318 909.0792141 C-17.65051455 907.73111224 -17.65051455 907.73111224 -17.62539998 906.35577601 C-16.82870186 862.72802643 -16.02862163 819.10033896 -15.22827148 775.47265625 C-14.13457004 715.85383173 -13.04277604 656.23497281 -11.95375644 596.61606258 C-11.90211377 593.78886125 -11.8504701 590.96165993 -11.79882621 588.13445862 C-11.49049506 571.25505495 -11.18218924 554.37565081 -10.87390963 537.4962462 C-10.14015374 497.32068254 -9.40600323 457.14512609 -8.6716156 416.96957397 C-8.65547443 416.08655082 -8.63933325 415.20352767 -8.62270295 414.29374625 C-7.25626 339.54127712 -5.88827074 264.78883637 -4.51789233 190.03643928 C-4.31143915 178.77460054 -4.10510379 167.51275965 -3.89883995 156.25091743 C-3.66841408 143.66992601 -3.43781275 131.08893782 -3.20698215 118.50795381 C-3.09115872 112.19494801 -2.97539774 105.88194109 -2.85984416 99.56893034 C-2.81691715 97.22454263 -2.77399008 94.88015491 -2.73106295 92.5357672 C-2.71020748 91.39585865 -2.68935201 90.25595011 -2.66786456 89.08149888 C-2.5666193 83.55519571 -2.46459726 78.02890897 -2.36079741 72.50265316 C-2.32064397 70.36199778 -2.28051128 68.22134201 -2.24039948 66.08068585 C-2.22064146 65.02664762 -2.20088344 63.97260939 -2.18052669 62.88663061 C-2.050551 55.89082209 -1.92998641 48.89489606 -1.81406285 41.89884112 C-1.73238295 37.00712694 -1.64695589 32.11548196 -1.56097895 27.22384163 C-1.52084574 24.88619375 -1.48245397 22.54851527 -1.44586879 20.21080918 C-1.39547487 17.00009956 -1.33916871 13.78954542 -1.28148121 10.57895982 C-1.26792632 9.61790879 -1.25437143 8.65685776 -1.24040579 7.66668396 C-1.22362585 6.79729415 -1.20684591 5.92790433 -1.18955749 5.03216936 C-1.17700958 4.27308387 -1.16446166 3.51399837 -1.15153351 2.73191028 C-1 1 -1 1 0 0 Z " fill="#FFFFFF" transform="translate(2162,2439)"/>
<path d="M0 0 C4.90798978 0.61421517 9.51050564 1.57863396 14.28930664 2.90405273 C14.99003642 3.09711282 15.6907662 3.2901729 16.41273022 3.48908329 C18.74636314 4.13314662 21.07823221 4.78337279 23.41015625 5.43359375 C25.09085742 5.89877746 26.77166686 6.36357013 28.45257568 6.82800293 C33.02904774 8.09362208 37.6040273 9.36456162 42.17877579 10.6363945 C47.05605098 11.99131324 51.93470222 13.34125884 56.81323242 14.69165039 C65.04865862 16.97180176 73.28333065 19.25465841 81.51757812 21.5390625 C93.51480412 24.86706741 105.51483882 28.18485964 117.515625 31.5 C157.10157605 42.43675261 196.6786111 53.40521019 236.24679947 64.40604782 C265.55631475 72.55465616 294.87637636 80.66421995 324.20460129 88.74521637 C353.75629041 96.88791566 383.29569117 105.07397174 412.82806396 113.28643799 C441.37605601 121.2249599 469.93332197 129.12898977 498.5 137 C528.9533043 145.39083457 559.39473953 153.82343194 589.82806396 162.28643799 C618.37605601 170.2249599 646.93332197 178.12898977 675.5 186 C705.9533043 194.39083457 736.39473953 202.82343194 766.82806396 211.28643799 C795.3760564 219.22496001 823.93336076 227.12884824 852.5 235 C881.86367741 243.09095359 911.21756223 251.21634008 940.5625 259.375 C971.28593612 267.91661944 1002.01452697 276.4392891 1032.75 284.9375 C1033.7207119 285.20590572 1034.6914238 285.47431145 1035.69155121 285.75085068 C1046.50664726 288.74124486 1057.32189023 291.73110741 1068.13720703 294.72070312 C1086.99967104 299.93473224 1105.86152607 305.15096356 1124.72325134 310.36766434 C1127.68720048 311.18741716 1130.65115628 312.00714589 1133.6151123 312.82687378 C1162.60517695 320.84466569 1191.59238208 328.87273093 1220.57772827 336.90756226 C1248.38239616 344.61501685 1276.19048432 352.31005647 1304 360 C1335.19661243 368.62655037 1366.39072535 377.26204439 1397.58175659 385.90875244 C1417.35622324 391.39051528 1437.13189518 396.86787912 1456.91015625 402.3359375 C1457.87723825 402.60331097 1458.84432026 402.87068443 1459.84070778 403.14616013 C1464.76520506 404.50765005 1469.68971459 405.86909566 1474.61422729 407.23052979 C1475.59540905 407.50178932 1476.57659081 407.77304886 1477.58750534 408.05252838 C1479.5702641 408.60068493 1481.55302421 409.14883658 1483.53578568 409.69698334 C1514.44591893 418.24246269 1545.34833782 426.81536066 1576.24599075 435.40584564 C1605.55575158 443.55460704 1634.87610889 451.66414626 1664.20460129 459.74521637 C1692.8129811 467.62799535 1721.41026487 475.54987333 1750 483.5 C1778.3072594 491.37132743 1806.62063931 499.21990364 1834.94473267 507.03045654 C1839.52597705 508.29377184 1844.10701434 509.5578362 1848.68798923 510.8221283 C1865.15364513 515.36614688 1881.62124396 519.90248045 1898.10063553 524.39645958 C1902.25103117 525.52896865 1906.40054672 526.66469865 1910.55002785 527.80055332 C1914.90909338 528.99319075 1919.27068948 530.17627007 1923.6328125 531.35766602 C1925.81390625 531.95420911 1927.99490275 532.55110796 1930.17578125 533.1484375 C1931.15754837 533.41179398 1932.13931549 533.67515045 1933.15083313 533.94648743 C1934.03474228 534.19021591 1934.91865143 534.4339444 1935.8293457 534.68505859 C1936.59285843 534.89246674 1937.35637115 535.09987488 1938.14302063 535.31356812 C1940 536 1940 536 1942 538 C1930.63208714 537.32611955 1919.41942508 535.56125812 1908.16210938 533.90942383 C1905.93588777 533.58551378 1903.70961947 533.26192453 1901.48330879 532.93862724 C1895.38906225 532.05268842 1889.29548991 531.16218758 1883.20202303 530.2709043 C1877.31719287 529.41085704 1871.43186487 528.554232 1865.54655077 527.69750417 C1853.51397637 525.94578729 1841.48191152 524.19059375 1829.45013428 522.43341064 C1817.41640927 520.6759476 1805.38245195 518.92008825 1793.34820557 517.16619873 C1792.59320101 517.05616155 1791.83819645 516.94612437 1791.06031297 516.83275273 C1787.99561345 516.3860952 1784.9309128 515.93944545 1781.86621057 515.49280651 C1708.0925362 504.74120598 1634.32343903 493.95823449 1518.87209511 477.07696287 C1448.94095029 466.84868755 1379.00617168 456.64579469 1261.99088258 439.63811237 C1258.25723306 439.09559289 1254.52358462 438.55306609 1250.78993607 438.01054001 C1249.29787074 437.79373233 1247.80580541 437.57692466 1246.31374007 437.36011702 C1245.57556636 437.25285512 1244.83739265 437.14559323 1244.07685003 437.03508098 C1242.58649818 436.81852237 1241.0961463 436.60196397 1239.60579439 436.38540577 C1223.34366575 434.02240834 1207.08155077 431.65931692 1190.81946298 429.29603836 C1188.6217823 428.97666256 1186.42410101 428.65729091 1184.22641969 428.33791947 C1122.08558044 419.30742293 1059.94830567 410.2525696 997.8125 401.1875 C996.5991438 401.01048396 995.3857876 400.83346792 994.13566303 400.65108776 C980.71024411 398.69245784 967.28483746 396.73374377 953.85943604 394.7749939 C952.65228675 394.59887231 951.44513747 394.42275072 950.20140791 394.24129212 C944.11077779 393.35267263 938.02015034 392.46403486 931.92952728 391.57536697 C904.11948182 387.51768819 876.30924015 383.46135926 848.49853516 379.40820312 C847.84007128 379.31223709 847.18160741 379.21627105 846.50319009 379.11739695 C831.79810682 376.97425031 817.09296806 374.83148502 802.38773056 372.68939692 C796.38600123 371.81512568 790.38428337 370.94077578 784.38256836 370.06640625 C783.7233886 369.97037467 783.06420885 369.8743431 782.38505395 369.77540147 C763.4139075 367.01158791 744.44344854 364.24309695 725.47357428 361.47056293 C714.09449419 359.80759531 702.71523698 358.14584065 691.3359375 356.484375 C690.10215355 356.30420397 688.86836959 356.12403294 687.59719825 355.93840218 C654.463367 351.10028229 621.32208847 346.31863758 588.16980493 341.60862011 C580.60390442 340.53335077 573.03866951 339.45350329 565.47390747 338.37025452 C564.43588804 338.22162407 563.39786862 338.07299363 562.32839406 337.91985923 C558.21343066 337.33052079 554.09849412 336.74099652 549.9836514 336.15081608 C538.30441595 334.47571223 526.62333707 332.81560431 514.93785608 331.18461215 C507.84698513 330.19363998 500.75891617 329.18414326 493.67282546 328.15955079 C489.65474292 327.57925153 485.63594303 327.00760822 481.61326981 326.45995331 C477.96304922 325.96296512 474.31718221 325.44153767 470.67319369 324.90079796 C468.75763329 324.62297048 466.83834528 324.37121795 464.91901588 324.12074947 C456.55301782 322.84423529 450.77907087 320.01473279 444 315 C442.89084726 314.23014843 441.78150703 313.46056682 440.671875 312.69140625 C439.70765625 311.98886719 438.7434375 311.28632812 437.75 310.5625 C431.50876666 306.0516687 425.20097576 301.64106367 418.875 297.25 C411.5736878 292.18030429 404.2786307 287.10221328 397 282 C389.84384151 276.98481748 382.67546228 271.98752269 375.5 267 C364.16874721 259.12322456 352.86247 251.21118242 341.56152344 243.29101562 C330.91082005 235.82743842 320.24626845 228.38427883 309.56713867 220.96142578 C302.55401102 216.08523453 295.55361744 211.1911751 288.55859375 206.2890625 C282.21521942 201.8456846 275.85947311 197.42029955 269.5 193 C261.50850164 187.44532338 253.5286375 181.87446916 245.55859375 176.2890625 C239.2152193 171.84568452 232.85945204 167.42033002 226.5 163 C215.16874721 155.12322456 203.86247 147.21118242 192.56152344 139.29101562 C181.91082005 131.82743842 171.24626845 124.38427883 160.56713867 116.96142578 C153.55401102 112.08523453 146.55361744 107.1911751 139.55859375 102.2890625 C133.2152193 97.84568452 126.85945204 93.42033002 120.5 89 C109.16874721 81.12322456 97.86247 73.21118242 86.56152344 65.29101562 C75.91082005 57.82743842 65.24626845 50.38427883 54.56713867 42.96142578 C47.56568797 38.09335346 40.57649048 33.20809383 33.59375 28.31323242 C25.91512718 22.93342807 18.2161603 17.58298763 10.51171875 12.24023438 C9.59003906 11.60021484 8.66835937 10.96019531 7.71875 10.30078125 C6.90341797 9.73528564 6.08808594 9.16979004 5.24804688 8.5871582 C3.13503197 7.0953348 1.06047032 5.5633494 -1 4 C-0.67 2.68 -0.34 1.36 0 0 Z " fill="#FFFFFF" transform="translate(1533,1192)"/>
<path d="M0 0 C2.20012122 0.31553655 4.40030483 0.6306384 6.60054493 0.94534492 C12.60049441 1.80481026 18.59954477 2.67040985 24.59845638 3.53708553 C31.02758957 4.46482797 37.45753914 5.38687944 43.88739014 6.30963135 C54.96638955 7.90021558 66.0448139 9.49476414 77.12289429 11.09173584 C88.83514858 12.78011916 100.54770741 14.46636586 112.26065063 16.14996338 C112.9953686 16.25557221 113.73008657 16.36118105 114.48706872 16.46999015 C117.46536485 16.89808619 120.44366291 17.32616873 123.42196355 17.75423343 C159.00333338 22.86828924 194.58318529 27.99286061 230.16257967 33.12063948 C236.99427072 34.10522803 243.8259919 35.0896074 250.65771484 36.07397461 C286.54451897 41.24491947 322.43096613 46.41833952 358.31659412 51.59744072 C415.42797263 59.83989353 472.54212883 68.06285533 529.65844727 76.27099609 C530.51732174 76.3944249 531.37619622 76.51785371 532.26109719 76.64502278 C557.02862186 80.20435192 581.79623234 83.76308384 606.563859 87.32170318 C637.64492931 91.78744422 668.72596091 96.25345458 699.80688477 100.72021484 C700.66776302 100.84393442 701.52864127 100.96765401 702.41560674 101.09512267 C746.98736559 107.50069908 791.55853233 113.9103275 836.12719727 120.33740234 C837.21684052 120.49453099 838.30648378 120.65165964 839.42914653 120.81354976 C860.34465941 123.82966491 881.25994331 126.84736466 902.17485446 129.86764973 C913.6054983 131.51831264 925.03623127 133.16835746 936.46704102 134.81787109 C937.5173932 134.96944837 938.56774539 135.12102564 939.64992642 135.27719617 C978.21267971 140.84184941 1016.7799654 146.37468199 1055.34814361 151.90158003 C1068.68512729 153.81280186 1082.02196734 155.72502292 1095.35868835 157.63807678 C1096.23809267 157.7642179 1097.11749698 157.89035902 1098.02354991 158.0203226 C1106.02452413 159.16797697 1114.02549324 160.31566695 1122.02643907 161.46351922 C1142.29657387 164.37154537 1162.5670895 167.27687357 1182.83849342 170.1760405 C1196.94925001 172.19418905 1211.05943896 174.21626715 1225.1690706 176.24226594 C1233.65836433 177.46109791 1242.14811358 178.67665152 1250.63851084 179.88777288 C1256.36298022 180.70465244 1262.08686205 181.52556339 1267.81028579 182.34973708 C1271.08719481 182.82148804 1274.36441821 183.29081989 1277.64219916 183.75647962 C1281.17796119 184.25906485 1284.71267598 184.76846188 1288.24720764 185.27961731 C1289.27367079 185.4238427 1290.30013393 185.5680681 1291.35770202 185.71666396 C1300.69399124 187.08098304 1300.69399124 187.08098304 1305.13891602 188.98193359 C1305.46891602 189.64193359 1305.79891602 190.30193359 1306.13891602 190.98193359 C1305.80891602 191.64193359 1305.47891602 192.30193359 1305.13891602 192.98193359 C772.51891602 192.98193359 239.89891602 192.98193359 -308.86108398 192.98193359 C-309.19108398 191.99193359 -309.52108398 191.00193359 -309.86108398 189.98193359 C-304.70303364 185.40924277 -299.34729126 181.3896303 -293.67358398 177.48193359 C-291.89227163 176.24504422 -290.11102346 175.00806241 -288.32983398 173.77099609 C-287.42362305 173.14354492 -286.51741211 172.51609375 -285.58374023 171.86962891 C-281.27065702 168.87924517 -276.97216084 165.86811516 -272.67358398 162.85693359 C-271.42931641 161.98609131 -271.42931641 161.98609131 -270.15991211 161.09765625 C-262.73835305 155.90169041 -255.33541393 150.67960629 -247.93774414 145.44970703 C-244.41340882 142.95872373 -240.88713697 140.47048456 -237.36108398 137.98193359 C-235.9444083 136.98194637 -234.52774163 135.98194638 -233.11108398 134.98193359 C-224.61108398 128.98193359 -216.11108398 122.98193359 -207.61108398 116.98193359 C-206.91007568 116.48709473 -206.20906738 115.99225586 -205.48681641 115.48242188 C-204.06774441 114.48074317 -202.64863623 113.4791157 -201.22949219 112.47753906 C-197.72433124 110.00363865 -194.21976883 107.52889993 -190.71655273 105.05224609 C-182.26350701 99.07791303 -173.79248806 93.12994325 -165.30981445 87.19775391 C-157.83718592 81.96994163 -150.38448774 76.71429979 -142.93774414 71.44970703 C-139.41340882 68.95872373 -135.88713697 66.47048456 -132.36108398 63.98193359 C-130.9444083 62.98194637 -129.52774163 61.98194638 -128.11108398 60.98193359 C-119.61108398 54.98193359 -111.11108398 48.98193359 -102.61108398 42.98193359 C-101.91007568 42.48709473 -101.20906738 41.99225586 -100.48681641 41.48242188 C-99.06774441 40.48074317 -97.64863623 39.4791157 -96.22949219 38.47753906 C-92.72433124 36.00363865 -89.21976883 33.52889993 -85.71655273 31.05224609 C-79.79925153 26.87009337 -73.87924393 22.69202719 -67.94311523 18.53662109 C-66.69002563 17.65864868 -66.69002563 17.65864868 -65.41162109 16.76293945 C-63.71654205 15.57928849 -62.01814427 14.40037555 -60.31640625 13.22631836 C-56.21653019 10.38830846 -52.20559953 7.50141945 -48.30639648 4.39208984 C-47.57678711 3.828125 -46.84717773 3.26416016 -46.09545898 2.68310547 C-44.74615615 1.63489706 -43.41780135 0.55877783 -42.11889648 -0.55126953 C-31.94661789 -8.31822809 -11.84926242 -1.71950091 0 0 Z " fill="#FFFFFF" transform="translate(2023.861083984375,1538.01806640625)"/>
<path d="M0 0 C1.98 0.99 1.98 0.99 4 2 C4 385.13 4 768.26 4 1163 C2.68 1163.33 1.36 1163.66 0 1164 C-3.14628168 1158.36053029 -4.89802518 1152.38046031 -6.7890625 1146.2265625 C-7.35988988 1144.39206933 -7.93071756 1142.55757626 -8.50155544 1140.72308636 C-9.11724296 1138.74090812 -9.73036163 1136.75795178 -10.34274292 1134.77474976 C-11.65044879 1130.54002248 -12.96541086 1126.30756949 -14.28149414 1122.07543945 C-15.69568343 1117.52660933 -17.10933091 1112.97761372 -18.52058411 1108.4278717 C-23.60659932 1092.03131982 -28.72784706 1075.64582369 -33.85125732 1059.26092529 C-35.45049367 1054.14632577 -37.04878727 1049.03143191 -38.64697266 1043.91650391 C-45.67603397 1021.42155313 -52.71938146 998.93111044 -59.7722168 976.44360352 C-64.88682782 960.13569942 -69.99437779 943.825616 -75.08984375 927.51171875 C-75.34905043 926.68184071 -75.6082571 925.85196266 -75.87531853 924.9969368 C-77.19718767 920.76474272 -78.51897392 916.53252275 -79.84072876 912.30029297 C-80.37298468 910.59602828 -80.90524176 908.89176396 -81.4375 907.1875 C-81.7005682 906.34516815 -81.9636364 905.5028363 -82.23467636 904.63497925 C-89.90296003 880.08230861 -97.59399182 855.53692717 -105.3125 831 C-112.1653146 809.21439628 -119.00367166 787.42439424 -125.8125 765.625 C-126.01323875 764.98232304 -126.21397751 764.33964607 -126.42079926 763.67749405 C-128.4976692 757.02810398 -130.57402874 750.37855459 -132.65010643 743.72891712 C-137.64262113 727.73801253 -142.63808541 711.74802937 -147.63424301 695.75826263 C-148.17000105 694.04360996 -148.70574984 692.3289544 -149.24148941 690.61429596 C-157.0717703 665.5532216 -164.91488101 640.4962078 -172.7722168 615.44360352 C-177.88682782 599.13569942 -182.99437779 582.825616 -188.08984375 566.51171875 C-188.34905043 565.68184071 -188.6082571 564.85196266 -188.87531853 563.9969368 C-190.19718767 559.76474272 -191.51897392 555.53252275 -192.84072876 551.30029297 C-193.37298468 549.59602828 -193.90524176 547.89176396 -194.4375 546.1875 C-194.7005682 545.34516815 -194.9636364 544.5028363 -195.23467636 543.63497925 C-202.90296016 519.08230818 -210.59415693 494.53697935 -218.3125 470 C-223.61134677 453.15369683 -228.90859577 436.30691421 -234.18359375 419.453125 C-234.39516806 418.77716026 -234.60674236 418.10119553 -234.82472801 417.40474701 C-237.11958052 410.07176076 -239.41073495 402.73763738 -241.69506836 395.40136719 C-242.30108641 393.45552007 -242.90714421 391.50968534 -243.51325035 389.56386566 C-243.91520423 388.27344237 -244.31710185 386.98300154 -244.71894264 385.69254303 C-247.44799629 376.93152686 -250.20729377 368.18057818 -252.98962402 359.43634033 C-254.50773525 354.66406101 -256.01596621 349.88867795 -257.52146912 345.11240768 C-258.54110374 341.87984247 -259.56610086 338.64919654 -260.60412598 335.42248535 C-261.73639942 331.89509406 -262.85065682 328.36248899 -263.9609375 324.828125 C-264.47166306 323.26118896 -264.47166306 323.26118896 -264.9927063 321.66259766 C-265.28950287 320.70562988 -265.58629944 319.74866211 -265.89208984 318.76269531 C-266.15597504 317.9342511 -266.41986023 317.10580688 -266.69174194 316.2522583 C-267.20932823 312.4705631 -265.36668384 310.48529405 -263.15234375 307.5546875 C-258.63878318 302.09383644 -254.0220131 296.76720882 -249.25 291.53125 C-246.92137947 288.9115519 -244.70437053 286.2248469 -242.5 283.5 C-238.88967558 279.03723787 -235.11572071 274.77280467 -231.25 270.53125 C-228.92137947 267.9115519 -226.70437053 265.2248469 -224.5 262.5 C-220.88967558 258.03723787 -217.11572071 253.77280467 -213.25 249.53125 C-210.92137947 246.9115519 -208.70437053 244.2248469 -206.5 241.5 C-203.5918662 237.9052235 -200.61458668 234.41739372 -197.5 231 C-194.47717579 227.68010514 -191.57487839 224.30235888 -188.75 220.8125 C-183.53481485 214.37288007 -178.08668248 208.14544597 -172.64648438 201.89648438 C-170.06362591 198.92144811 -167.49943086 195.9305594 -164.9375 192.9375 C-164.20116333 192.07741333 -164.20116333 192.07741333 -163.44995117 191.19995117 C-162.46114797 190.04469482 -161.47245951 188.88934024 -160.48388672 187.73388672 C-157.99104476 184.82105954 -155.49537234 181.91065939 -153 179 C-151.9999866 177.83334482 -150.99998659 176.66667816 -150 175.5 C-120 140.5 -120 140.5 -118.49926758 138.74926758 C-117.50154805 137.58518023 -116.50398886 136.42095544 -115.5065918 135.2565918 C-112.97301257 132.29930113 -110.43649863 129.34461631 -107.89453125 126.39453125 C-103.30393447 121.06164678 -98.74238602 115.71814055 -94.3125 110.25 C-90.76254679 105.87492253 -87.04436179 101.69450808 -83.25 97.53125 C-80.92137947 94.9115519 -78.70437053 92.2248469 -76.5 89.5 C-72.88967558 85.03723787 -69.11572071 80.77280467 -65.25 76.53125 C-62.92137947 73.9115519 -60.70437053 71.2248469 -58.5 68.5 C-54.88967558 64.03723787 -51.11572071 59.77280467 -47.25 55.53125 C-44.92137947 52.9115519 -42.70437053 50.2248469 -40.5 47.5 C-37.5918662 43.9052235 -34.61458668 40.41739372 -31.5 37 C-27.68392557 32.80889757 -24.09578851 28.47578087 -20.53125 24.0703125 C-16.96649701 19.74639915 -13.28903188 15.52391591 -9.60449219 11.30200195 C-6.35283273 7.57418523 -3.15248268 3.81216887 0 0 Z " fill="#FFFFFF" transform="translate(2439,2073)"/>
<path d="M0 0 C209.55 0 419.1 0 635 0 C635.33 1.32 635.66 2.64 636 4 C634.2265625 6.41015625 634.2265625 6.41015625 631.625 9.0625 C630.68639211 10.04196707 629.7502464 11.02379874 628.81640625 12.0078125 C628.34090332 12.50571289 627.86540039 13.00361328 627.37548828 13.51660156 C625.32147004 15.73176216 623.44697098 18.07763617 621.5625 20.4375 C617.90364231 24.9739673 614.05131037 29.258661 610.08398438 33.52148438 C607.1129881 36.73281228 604.30046168 40.02618789 601.5625 43.4375 C597.71954521 48.21541338 593.63168671 52.68994984 589.44384766 57.16162109 C585.52093146 61.37429105 581.88088976 65.76413555 578.27734375 70.25390625 C575.78173531 73.26319052 573.16234857 76.13938654 570.5 79 C567.02580757 82.73327255 563.6993129 86.52371111 560.5 90.5 C556.86500611 95.01777813 553.0328971 99.27818516 549.0859375 103.51953125 C546.09558642 106.75211747 543.26213671 110.06705866 540.5 113.5 C536.86500611 118.01777813 533.0328971 122.27818516 529.0859375 126.51953125 C526.09558642 129.75211747 523.26213671 133.06705866 520.5 136.5 C516.86500611 141.01777813 513.0328971 145.27818516 509.0859375 149.51953125 C506.09558642 152.75211747 503.26213671 156.06705866 500.5 159.5 C496.86500611 164.01777813 493.0328971 168.27818516 489.0859375 172.51953125 C486.09558642 175.75211747 483.26213671 179.06705866 480.5 182.5 C476.86500611 187.01777813 473.0328971 191.27818516 469.0859375 195.51953125 C466.09558642 198.75211747 463.26213671 202.06705866 460.5 205.5 C456.86500611 210.01777813 453.0328971 214.27818516 449.0859375 218.51953125 C446.09558642 221.75211747 443.26213671 225.06705866 440.5 228.5 C436.8643595 233.01858176 433.03163598 237.27983329 429.08374023 241.52172852 C426.11284372 244.7329905 423.30038923 248.02627815 420.5625 251.4375 C416.71954521 256.21541338 412.63168671 260.68994984 408.44384766 265.16162109 C404.52093146 269.37429105 400.88088976 273.76413555 397.27734375 278.25390625 C394.78173296 281.26319336 392.16229869 284.13933755 389.5 287 C385.96787817 290.79675531 382.57953789 294.65571658 379.3125 298.6875 C378.59191406 299.57308594 377.87132813 300.45867188 377.12890625 301.37109375 C375.69020774 303.14768842 374.2607254 304.9317801 372.83984375 306.72265625 C372.15019531 307.55667969 371.46054688 308.39070313 370.75 309.25 C370.14671875 309.99765625 369.5434375 310.7453125 368.921875 311.515625 C367 313 367 313 364.6796875 313.078125 C360.9661053 311.5840307 358.30044328 309.15394792 355.375 306.5 C354.12201724 305.39348463 352.86810217 304.28802415 351.61328125 303.18359375 C350.99791504 302.63815918 350.38254883 302.09272461 349.74853516 301.53076172 C347.40342406 299.47772534 344.99008895 297.51694568 342.5625 295.5625 C336.21723119 290.40813208 330.07490552 285.02637235 323.90966797 279.65966797 C316.86727609 273.5392154 309.80997199 267.43969663 302.5625 261.5625 C297.51145932 257.46084729 292.59871604 253.21408989 287.69213867 248.94213867 C282.03600979 244.01999483 276.32240409 239.16935245 270.58837891 234.33837891 C267.91091047 232.08232573 265.23627043 229.82293394 262.5625 227.5625 C262.03011719 227.11261719 261.49773437 226.66273438 260.94921875 226.19921875 C256.90655238 222.77850105 252.88928039 219.32894463 248.875 215.875 C244.81371255 212.38184894 240.72481413 208.93551604 236.5625 205.5625 C231.51066283 201.46020051 226.5969402 197.21298022 221.68994141 192.93994141 C217.10903362 188.95296241 212.49258493 185.01188319 207.84863281 181.09863281 C203.83615816 177.71518052 199.85289612 174.29899816 195.875 170.875 C191.81379124 167.38176144 187.72481029 163.93551293 183.5625 160.5625 C178.51145932 156.46084729 173.59871604 152.21408989 168.69213867 147.94213867 C163.03600979 143.01999483 157.32240409 138.16935245 151.58837891 133.33837891 C148.91091047 131.08232573 146.23627043 128.82293394 143.5625 126.5625 C143.03011719 126.11261719 142.49773437 125.66273438 141.94921875 125.19921875 C137.90655238 121.77850105 133.88928039 118.32894463 129.875 114.875 C125.81371255 111.38184894 121.72481413 107.93551604 117.5625 104.5625 C112.51066283 100.46020051 107.5969402 96.21298022 102.68994141 91.93994141 C98.10903362 87.95296241 93.49258493 84.01188319 88.84863281 80.09863281 C84.83615816 76.71518052 80.85289612 73.29899816 76.875 69.875 C72.81379124 66.38176144 68.72481029 62.93551293 64.5625 59.5625 C59.51066283 55.46020051 54.5969402 51.21298022 49.68994141 46.93994141 C45.10903362 42.95296241 40.49258493 39.01188319 35.84863281 35.09863281 C31.83615775 31.71518017 27.85292687 28.29896292 23.875 24.875 C18.78596476 20.49842969 13.63250826 16.21218127 8.421875 11.98046875 C5.2337135 9.37337539 2.1121233 6.69717352 -1 4 C-0.67 2.68 -0.34 1.36 0 0 Z " fill="#FFFFFF" transform="translate(1785,2057)"/>
<path d="M0 0 C4.64027086 0.50621137 7.05074531 2.32646714 10.625 5.25 C16.07564296 9.61179536 21.71006432 13.60155819 27.5 17.5 C34.09602245 21.95633396 40.44913038 26.57319638 46.71484375 31.484375 C51.14627221 34.92060401 55.75351721 38.10769319 60.34545898 41.32397461 C65.65877038 45.04679404 70.93328297 48.81925791 76.1875 52.625 C81.44675675 56.43315683 86.71167938 60.23229258 92 64 C97.26371892 67.75193788 102.51061281 71.52666002 107.75 75.3125 C108.50724365 75.85962646 109.2644873 76.40675293 110.04467773 76.97045898 C113.88165963 79.74370707 117.71701171 82.519188 121.55078125 85.296875 C128.83809915 90.57332794 136.14142863 95.82326124 143.5 101 C151.62784334 106.71791991 159.68666044 112.52824095 167.73388672 118.35888672 C171.486448 121.07648173 175.24343419 123.78794473 179 126.5 C180.50002146 127.58330362 182.00002146 128.66663696 183.5 129.75 C184.2425 130.28625 184.985 130.8225 185.75 131.375 C192.5 136.25 192.5 136.25 194.75097656 137.87573242 C196.24768701 138.95667191 197.74443168 140.03756401 199.24121094 141.1184082 C203.04182637 143.8629754 206.84180298 146.60841966 210.640625 149.35546875 C217.97036718 154.65467424 225.30713176 159.94304209 232.67285156 165.19213867 C238.24235154 169.16476107 243.78463598 173.17479548 249.328125 177.18359375 C253.87522111 180.47018533 258.43094478 183.74401439 263 187 C269.12893427 191.36758166 275.22972521 195.77350934 281.328125 200.18359375 C285.87522163 203.4701857 290.43099168 206.7439481 295 210 C300.2636692 213.75200825 305.51061224 217.52665961 310.75 221.3125 C311.50724365 221.85962646 312.2644873 222.40675293 313.04467773 222.97045898 C316.88165963 225.74370707 320.71701171 228.519188 324.55078125 231.296875 C331.83809915 236.57332794 339.14142863 241.82326124 346.5 247 C354.62784334 252.71791991 362.68666044 258.52824095 370.73388672 264.35888672 C374.48644811 267.07648181 378.24347667 269.78788573 382 272.5 C383.4869833 273.57421303 384.97396246 274.64843179 386.4609375 275.72265625 C389.58970501 277.98247289 392.72014802 280.23994658 395.8515625 282.49609375 C396.65078125 283.07230469 397.45 283.64851563 398.2734375 284.2421875 C399.78601316 285.33264902 401.29900059 286.42253971 402.8125 287.51171875 C407.58382841 290.95275113 412.30577763 294.45453148 417 298 C415.69995042 300.9835585 414.53761378 302.64631984 411.859375 304.48828125 C411.21274902 304.93913086 410.56612305 305.38998047 409.89990234 305.85449219 C409.19043457 306.33563477 408.4809668 306.81677734 407.75 307.3125 C407.00057129 307.83102539 406.25114258 308.34955078 405.47900391 308.88378906 C402.99284197 310.59939805 400.49741987 312.30082707 398 314 C396.26297227 315.1861268 394.52599386 316.37232583 392.7890625 317.55859375 C390.05396477 319.42458802 387.31775923 321.28889193 384.57910156 323.1496582 C377.85406527 327.72117814 371.16849899 332.34646756 364.5 337 C355.07334779 343.57634352 345.59366195 350.07097905 336.08984375 356.53515625 C329.66763788 360.90340799 323.26896454 365.30552714 316.87255859 369.71142578 C315.0061945 370.99573734 313.13814195 372.27755351 311.26953125 373.55859375 C303.44825057 378.92290657 295.655233 384.32631111 287.875 389.75 C278.32182831 396.40731212 268.71779831 402.98661614 259.08984375 409.53515625 C252.66763788 413.90340799 246.26896454 418.30552714 239.87255859 422.71142578 C238.0061945 423.99573734 236.13814195 425.27755351 234.26953125 426.55859375 C226.44825057 431.92290657 218.655233 437.32631111 210.875 442.75 C200.44695924 450.01698153 189.95463767 457.18626699 179.4453125 464.33496094 C168.29485904 471.92742226 157.21401859 479.61923469 146.15454102 487.34350586 C144.31476424 488.62640491 142.47184705 489.90481468 140.62548828 491.17822266 C138.88750253 492.38417855 137.16155696 493.60769068 135.44873047 494.84912109 C134.65998535 495.40809082 133.87124023 495.96706055 133.05859375 496.54296875 C132.36950928 497.04207764 131.6804248 497.54118652 130.97045898 498.05541992 C128.5095627 499.23510121 127.54340529 498.75757709 125 498 C118.78779269 474.57166794 112.7044491 451.11498827 106.78668213 427.6105957 C104.62242554 419.01504478 102.4501431 410.42151977 100.27734375 401.828125 C99.94524902 400.51445953 99.94524902 400.51445953 99.60644531 399.17425537 C95.18471616 381.68763036 90.70256444 364.21682262 86.20435715 346.7497406 C78.82413626 318.09110981 71.53802819 289.4096139 64.29734039 260.71542358 C57.75632194 234.79513297 51.16692897 208.88818978 44.5 183 C36.54141903 152.09482646 28.69043429 121.16308785 20.89038086 90.2175293 C19.98180348 86.61372023 19.07301254 83.00996509 18.1640625 79.40625 C17.94292597 78.52938349 17.72178944 77.65251698 17.4939518 76.74907875 C14.69252731 65.64500739 11.86388552 54.54848082 8.99304008 43.46215248 C8.47115482 41.445727 7.95043864 39.42900372 7.43019104 37.41215515 C5.88734014 31.4318716 4.33742463 25.45369611 2.77026367 19.47973633 C2.24350708 17.44103955 1.71718952 15.40222927 1.19140625 13.36328125 C0.94993866 12.45739258 0.70847107 11.55150391 0.45968628 10.61816406 C0.24941803 9.79453369 0.03914978 8.97090332 -0.17749023 8.12231445 C-0.36206284 7.41653763 -0.54663544 6.7107608 -0.73680115 5.9835968 C-1.03593806 3.729153 -0.6814497 2.15326943 0 0 Z " fill="#FFFFFF" transform="translate(1546,1226)"/>
<path d="M0 0 C0.515625 0.2475 1.03125 0.495 1.5625 0.75 C1.01240947 4.41369042 0.13998331 6.78003932 -2.03515625 9.76953125 C-2.58051025 10.53112549 -3.12586426 11.29271973 -3.68774414 12.07739258 C-4.28578857 12.89747803 -4.88383301 13.71756348 -5.5 14.5625 C-6.79404704 16.37330128 -8.0856175 18.18587437 -9.375 20 C-10.04789063 20.94617187 -10.72078125 21.89234375 -11.4140625 22.8671875 C-14.69531982 27.54202901 -17.84809593 32.29988024 -21 37.0625 C-27.11664153 46.28459395 -33.2875108 55.46730945 -39.5 64.625 C-39.93813019 65.27095123 -40.37626038 65.91690247 -40.82766724 66.58242798 C-42.63579467 69.24814115 -44.44403691 71.91377632 -46.25257874 74.57920837 C-51.00414432 81.58290178 -55.74566398 88.59337843 -60.48654175 95.60430908 C-68.72836867 107.79240144 -76.9761913 119.97641328 -85.22949219 132.15673828 C-92.13702093 142.35120806 -99.03868009 152.549635 -105.9375 162.75 C-113.69654857 174.22227041 -121.46051739 185.69118779 -129.22949219 197.15673828 C-136.13702093 207.35120806 -143.03868009 217.549635 -149.9375 227.75 C-157.69654857 239.22227041 -165.46051739 250.69118779 -173.22949219 262.15673828 C-180.13702093 272.35120806 -187.03868009 282.549635 -193.9375 292.75 C-201.69654857 304.22227041 -209.46051739 315.69118779 -217.22949219 327.15673828 C-224.13702093 337.35120806 -231.03868009 347.549635 -237.9375 357.75 C-245.69654857 369.22227041 -253.46051739 380.69118779 -261.22949219 392.15673828 C-268.13702093 402.35120806 -275.03868009 412.549635 -281.9375 422.75 C-289.69654857 434.22227041 -297.46051739 445.69118779 -305.22949219 457.15673828 C-312.13702093 467.35120806 -319.03868009 477.549635 -325.9375 487.75 C-333.69654857 499.22227041 -341.46051739 510.69118779 -349.22949219 522.15673828 C-356.13702093 532.35120806 -363.03868009 542.549635 -369.9375 552.75 C-377.69654857 564.22227041 -385.46051739 575.69118779 -393.22949219 587.15673828 C-400.13702093 597.35120806 -407.03868009 607.549635 -413.9375 617.75 C-419.53940159 626.03278483 -425.14169 634.31530242 -430.75 642.59375 C-431.18092453 643.22984695 -431.61184906 643.86594391 -432.05583191 644.52131653 C-434.19728044 647.68211476 -436.33918841 650.84260065 -438.48168945 654.00268555 C-442.71831339 660.25260352 -446.94948546 666.50611066 -451.16952515 672.76724243 C-453.30177273 675.93064217 -455.43555048 679.09300856 -457.56933594 682.25537109 C-458.60025939 683.784283 -459.63038018 685.31373646 -460.65966797 686.84375 C-462.08754507 688.96618165 -463.5180999 691.08678464 -464.94921875 693.20703125 C-465.37526901 693.84191971 -465.80131927 694.47680817 -466.24028015 695.13093567 C-467.85589843 697.5201068 -469.39272524 699.70522524 -471.4375 701.75 C-472.7575 701.75 -474.0775 701.75 -475.4375 701.75 C-474.84783287 696.10926916 -473.80937479 690.87739439 -472.25805664 685.42919922 C-472.03574434 684.63081603 -471.81343204 683.83243284 -471.58438301 683.00985622 C-470.84416173 680.35660341 -470.09588187 677.70569314 -469.34765625 675.0546875 C-468.81492477 673.15079834 -468.28273738 671.24675687 -467.75105286 669.34257507 C-466.60764064 665.25141521 -465.46078654 661.16124217 -464.31121826 657.07180786 C-462.47458599 650.53770203 -460.64587487 644.00139679 -458.81884766 637.46459961 C-458.19305659 635.22581415 -457.56726312 632.98702937 -456.94146729 630.74824524 C-456.62922462 629.63113977 -456.31698196 628.51403431 -455.9952774 627.36307716 C-455.03628195 623.93311511 -454.07654778 620.5033605 -453.11663818 617.07365417 C-447.07029361 595.46606923 -441.08575985 573.84159816 -435.11363983 552.21340179 C-432.69069301 543.43998857 -430.26521699 534.66727395 -427.83984375 525.89453125 C-427.57418358 524.9335553 -427.30852341 523.97257935 -427.03481293 522.98248291 C-420.99891865 501.15016146 -414.93958392 479.32436684 -408.875 457.5 C-408.61776279 456.5742429 -408.36052559 455.64848579 -408.09549332 454.69467545 C-403.95182815 439.78227251 -399.80674962 424.87026255 -395.66145325 409.95831299 C-392.03265601 396.90431765 -388.40428119 383.85020503 -384.77687836 370.79582214 C-384.25995311 368.93551669 -383.74301084 367.07521597 -383.22605133 365.21492004 C-378.1550144 346.96647571 -373.08666051 328.71729394 -368.03710938 310.46289062 C-367.75240563 309.43368877 -367.46770189 308.40448692 -367.17437077 307.34409714 C-365.73419157 302.13672598 -364.29526688 296.92901197 -362.85826111 291.72076416 C-360.05678956 281.57027517 -357.24193309 271.42390912 -354.39477539 261.28613281 C-353.31998949 257.45167033 -352.24711919 253.61667721 -351.17578125 249.78125 C-350.91745577 248.85700981 -350.65913029 247.93276962 -350.39297676 246.98052216 C-347.17869656 235.44802674 -344.22278274 223.90059685 -341.60546875 212.21875 C-333.8593462 178.31189085 -333.8593462 178.31189085 -322.32763672 171.04272461 C-317.89127038 168.86032374 -313.42920694 167.25589668 -308.70019531 165.82958984 C-303.52432779 164.11695244 -299.00848169 161.41654698 -294.3125 158.6875 C-292.52119173 157.70162907 -290.72690149 156.72115717 -288.9296875 155.74609375 C-288.03475586 155.25737793 -287.13982422 154.76866211 -286.21777344 154.26513672 C-281.29652551 151.58325538 -276.36677452 148.91709102 -271.4375 146.25 C-262.85676169 141.60675229 -254.28584807 136.94598829 -245.72436523 132.26733398 C-241.0012616 129.68790656 -236.27291885 127.11882249 -231.53515625 124.56640625 C-221.589378 119.20564711 -211.68894107 113.78650601 -201.875 108.1875 C-193.36411031 103.33439867 -184.74664457 98.74310842 -176.03808594 94.25610352 C-169.47778759 90.85916199 -163.0337701 87.29887532 -156.625 83.625 C-147.00657441 78.11528562 -137.24810707 72.90592476 -127.4375 67.75 C-117.81735921 62.6933217 -108.24188331 57.59496092 -98.8125 52.1875 C-88.40001616 46.21727025 -77.8185031 40.59319162 -67.20849609 34.98510742 C-65.84599836 34.26486849 -64.48353055 33.54457293 -63.12109375 32.82421875 C-62.45702515 32.47312546 -61.79295654 32.12203217 -61.10876465 31.76029968 C-52.75697119 27.33902524 -44.47338993 22.7942317 -36.18701172 18.25195312 C-29.95853729 14.84957569 -23.7107949 11.48246559 -17.46484375 8.11230469 C-16.04558594 7.34515137 -16.04558594 7.34515137 -14.59765625 6.5625 C-13.70780029 6.08200195 -12.81794434 5.60150391 -11.90112305 5.10644531 C-9.70621055 3.89794924 -7.55127949 2.64063574 -5.3984375 1.359375 C-2.4375 -0.25 -2.4375 -0.25 0 0 Z " fill="#FFFFFF" transform="translate(3273.4375,2088.25)"/>
<path d="M0 0 C4.14414697 1.5095196 6.00476563 4.4218484 8.375 7.9375 C9.26143485 9.21464392 10.1495487 10.49062361 11.0390625 11.765625 C11.75304199 12.79333008 11.75304199 12.79333008 12.48144531 13.84179688 C15.17484542 17.669716 17.96542782 21.42566123 20.75 25.1875 C21.95313567 26.81639837 23.15626055 28.44530471 24.359375 30.07421875 C24.96201172 30.88938965 25.56464844 31.70456055 26.18554688 32.54443359 C29.12794685 36.52649212 32.0637044 40.51343938 35 44.5 C36.16663334 46.08335789 37.33330004 47.6666912 38.5 49.25 C59.5 77.75 80.5 106.25 101.5 134.75 C102.07758057 135.53383057 102.65516113 136.31766113 103.25024414 137.12524414 C104.41620806 138.70768185 105.58206104 140.29020131 106.74780273 141.87280273 C110.26246618 146.64393014 113.77941625 151.41333314 117.30517578 156.17626953 C118.47091525 157.75920056 119.6295403 159.34739721 120.78076172 160.94091797 C123.69239381 164.95984881 126.67332863 168.83407128 129.91015625 172.59765625 C130.5333374 173.35812256 131.15651855 174.11858887 131.79858398 174.90209961 C132.97039084 176.32828613 134.18257735 177.7227415 135.44165039 179.07250977 C137.32508896 181.42803137 138.18539979 183.07840411 139 186 C138.62701653 188.65315672 138.15133711 191.00802908 137.46118164 193.57592773 C137.27351321 194.31891648 137.08584478 195.06190523 136.89248943 195.82740879 C136.28014127 198.22353933 135.64339592 200.61203175 135 203 C134.79515739 203.76827621 134.59031479 204.53655243 134.37926483 205.32810974 C132.82456715 211.13621409 131.20660526 216.92597148 129.58203125 222.71484375 C129.05108886 224.616795 128.52046862 226.5188362 127.99014282 228.42095947 C126.85889435 232.47604231 125.72556865 236.53053626 124.59054565 240.58456421 C122.77756927 247.06034276 120.96954388 253.53749729 119.16235352 260.01489258 C117.28813655 266.73177449 115.41368524 273.44859027 113.53764343 280.16496277 C107.74129296 300.91660239 101.96710036 321.67435958 96.20199966 342.43470001 C95.43292842 345.20396127 94.66367871 347.9731729 93.89437866 350.74237061 C85.67714356 380.32227157 77.49100533 409.91071883 69.31274414 439.50141525 C59.61175201 474.60069535 49.86668113 509.68756058 40.08837891 544.76538086 C38.974171 548.76282663 37.86008692 552.76030689 36.74609375 556.7578125 C36.33332058 558.23894248 36.33332058 558.23894248 35.91220856 559.74999428 C31.83660667 574.37682051 27.78133978 589.00918327 23.73805428 603.64497375 C21.99707571 609.94530788 20.25369585 616.24497813 18.51047802 622.54469299 C16.85795916 628.518098 15.20976843 634.49267559 13.56478786 640.46816063 C12.55431718 644.13482762 11.53980391 647.80036702 10.52418327 651.4656105 C10.05620632 653.15781865 9.58994552 654.85050251 9.12555122 656.54369736 C8.49058227 658.85805079 7.84953844 661.17064001 7.20703125 663.48291016 C7.02639853 664.14716381 6.84576582 664.81141747 6.65965939 665.49580002 C5.43807743 669.85912788 3.85283758 673.87798437 2 678 C0.68 677.67 -0.64 677.34 -2 677 C-2.0342626 612.67581434 -2.06606379 548.35162761 -2.08468628 484.0274353 C-2.08496239 483.07613858 -2.08523851 482.12484185 -2.08552299 481.14471795 C-2.09150814 460.47284482 -2.0970486 439.80097159 -2.10213066 419.12909821 C-2.10462544 408.99231545 -2.10721853 398.85553272 -2.10986328 388.71875 C-2.1101248 387.7099927 -2.11038632 386.7012354 -2.11065576 385.6619097 C-2.11918569 352.9371642 -2.1342137 320.21242559 -2.15259444 287.48768427 C-2.17144135 253.87211071 -2.18376664 220.25654097 -2.18782998 186.64096222 C-2.18840633 181.89817783 -2.1890576 177.15539347 -2.18975449 172.4126091 C-2.18988933 171.47911737 -2.19002418 170.54562564 -2.19016311 169.58384629 C-2.19253092 154.5283777 -2.2018188 139.47292086 -2.21366407 124.41745707 C-2.22541224 109.29910017 -2.22994258 94.18075499 -2.22700275 79.06239368 C-2.2254761 70.06901188 -2.22958588 61.07567278 -2.24159509 52.08229865 C-2.24905977 46.08501271 -2.24935224 40.08775494 -2.24366363 34.0904671 C-2.24062584 30.66670593 -2.24084757 27.24302587 -2.24976636 23.81927319 C-2.25769468 20.14204932 -2.25352663 16.46504077 -2.24609566 12.78782082 C-2.25134968 11.71014167 -2.25660371 10.63246253 -2.26201695 9.52212644 C-2.25752237 8.55007524 -2.25302778 7.57802404 -2.24839699 6.57651675 C-2.24870895 5.73453334 -2.24902092 4.89254993 -2.24934233 4.02505187 C-2 2 -2 2 0 0 Z " fill="#FFFFFF" transform="translate(2780,2075)"/>
<path d="M0 0 C152.46 0 304.92 0 462 0 C462.33 1.65 462.66 3.3 463 5 C462.23671387 5.39155273 461.47342773 5.78310547 460.68701172 6.18652344 C441.92969654 15.80814006 441.92969654 15.80814006 423.375 25.8125 C413.09083466 31.49477096 402.6411114 36.83774244 392.18084717 42.18569946 C383.39132877 46.68178947 374.63704199 51.21515984 366 56 C356.60344851 61.2056013 347.06341713 66.11061966 337.5 71 C327.04087751 76.3473919 316.64117654 81.76271952 306.36328125 87.453125 C297.44639713 92.36211852 288.3815638 96.97667482 279.32214355 101.61505127 C270.86149711 105.94927968 262.44254462 110.33245197 254.125 114.9375 C243.92661703 120.58218639 233.55895505 125.87971018 223.1817627 131.1852417 C214.35064633 135.70272076 205.55491778 140.2585521 196.875 145.0625 C186.36982181 150.8756178 175.70192842 156.35973189 165.01245117 161.82397461 C158.91280824 164.94372882 152.82303234 168.06867872 146.8046875 171.34375 C145.92127686 171.82247559 145.03786621 172.30120117 144.12768555 172.79443359 C142.55574058 173.65157217 140.98900909 174.51837776 139.42895508 175.39697266 C134.55835496 178.04625305 134.55835496 178.04625305 131.98706055 177.83325195 C129.39486406 176.74624291 128.46143247 175.43359459 126.8203125 173.16015625 C125.93206787 171.94972656 125.93206787 171.94972656 125.02587891 170.71484375 C124.39858887 169.83957031 123.77129883 168.96429687 123.125 168.0625 C121.78274706 166.22937163 120.43896288 164.39736362 119.09375 162.56640625 C118.413125 161.63586426 117.7325 160.70532227 117.03125 159.74658203 C113.96937221 155.60642275 110.80314718 151.55117828 107.625 147.5 C103.19223626 141.83010105 98.81491751 136.12766703 94.515625 130.35546875 C91.1704869 125.87707407 87.7674167 121.44260349 84.375 117 C79.0041498 109.96506671 73.67124568 102.90374242 68.375 95.8125 C63.01701856 88.64231176 57.56685108 81.55185881 52.05371094 74.50048828 C47.86003171 69.12874275 43.74715301 63.70250713 39.67236328 58.24023438 C35.54751865 52.7151883 31.37239712 47.22966083 27.1875 41.75 C21.70175145 34.56211901 16.24033699 27.35672922 10.8125 20.125 C10.20108154 19.3112793 9.58966309 18.49755859 8.9597168 17.65917969 C7.82325683 16.1426333 6.69137036 14.62264463 5.56494141 13.09863281 C4.53979763 11.72388462 3.49567532 10.36304091 2.43115234 9.01855469 C1.01171875 7.1796875 1.01171875 7.1796875 -1 4 C-0.67 2.68 -0.34 1.36 0 0 Z " fill="#FFFFFF" transform="translate(2805,2065)"/>
</svg>
