<svg width="262" height="82" viewBox="0 0 262 82" fill="none" xmlns="http://www.w3.org/2000/svg">
<g filter="url(#filter0_b_2295_4480)">
<path d="M114.163 0.624023L104.31 10.6204L19.6479 10.2757L0.671875 28.2003V81.2847H52.1261L69.6425 61.9813H155.035L197.001 81.2847H261.957L229.479 61.2919V16.8251L212.328 0.624023H114.163Z" fill="url(#paint0_linear_2295_4480)"/>
<path d="M114.163 0.624023L104.31 10.6204L19.6479 10.2757L0.671875 28.2003V81.2847H52.1261L69.6425 61.9813H155.035L197.001 81.2847H261.957L229.479 61.2919V16.8251L212.328 0.624023H114.163Z" fill="url(#paint1_linear_2295_4480)" fill-opacity="0.8"/>
<path d="M114.163 0.624023L104.31 10.6204L19.6479 10.2757L0.671875 28.2003V81.2847H52.1261L69.6425 61.9813H155.035L197.001 81.2847H261.957L229.479 61.2919V16.8251L212.328 0.624023H114.163Z" stroke="url(#paint2_linear_2295_4480)" stroke-width="0.689408"/>
</g>
<defs>
<filter id="filter0_b_2295_4480" x="-61.7195" y="-61.7674" width="386.941" height="205.444" filterUnits="userSpaceOnUse" color-interpolation-filters="sRGB">
<feFlood flood-opacity="0" result="BackgroundImageFix"/>
<feGaussianBlur in="BackgroundImageFix" stdDeviation="31.0233"/>
<feComposite in2="SourceAlpha" operator="in" result="effect1_backgroundBlur_2295_4480"/>
<feBlend mode="normal" in="SourceGraphic" in2="effect1_backgroundBlur_2295_4480" result="shape"/>
</filter>
<linearGradient id="paint0_linear_2295_4480" x1="131.315" y1="0.624023" x2="131.315" y2="81.2847" gradientUnits="userSpaceOnUse">
<stop stop-color="#343436"/>
<stop offset="0.815" stop-color="#5D268B"/>
<stop offset="0.92" stop-color="#AC12E1"/>
<stop offset="0.995" stop-color="#BE00FF"/>
</linearGradient>
<linearGradient id="paint1_linear_2295_4480" x1="132.268" y1="76.2231" x2="132.264" y2="81.2855" gradientUnits="userSpaceOnUse">
<stop stop-opacity="0"/>
<stop offset="1" stop-color="#E8A7FF"/>
</linearGradient>
<linearGradient id="paint2_linear_2295_4480" x1="131.315" y1="0.624023" x2="131.315" y2="81.2847" gradientUnits="userSpaceOnUse">
<stop stop-color="#D8D8D8"/>
<stop offset="1" stop-color="#717171"/>
</linearGradient>
</defs>
</svg>
