<svg width="26" height="27" viewBox="0 0 26 27" fill="none" xmlns="http://www.w3.org/2000/svg">
<path d="M12.8304 0.799805C5.74443 0.799805 0 6.54423 0 13.6302C0 19.6471 4.14268 24.6962 9.73109 26.0829L9.73109 17.5512H7.08546V13.6302H9.73109V11.9407C9.73109 7.57374 11.7075 5.54962 15.9949 5.54962C16.8078 5.54962 18.2104 5.70923 18.7842 5.86833V9.42235C18.4814 9.39053 17.9554 9.37462 17.302 9.37462C15.1984 9.37462 14.3854 10.1716 14.3854 12.2435V13.6302H18.5764L17.8563 17.5512H14.3854L14.3854 26.3667C20.7385 25.5994 25.6613 20.1901 25.6613 13.6302C25.6608 6.54423 19.9164 0.799805 12.8304 0.799805Z" fill="white"/>
</svg>
