<svg width="26" height="27" viewBox="0 0 26 27" fill="none" xmlns="http://www.w3.org/2000/svg">
<g clip-path="url(#clip0_1717_13259)">
<path d="M13.1519 3.11028C16.5801 3.11028 16.986 3.12531 18.3342 3.18546C19.5872 3.24059 20.2638 3.45109 20.7149 3.6265C21.3113 3.85705 21.7423 4.13771 22.1883 4.58377C22.6394 5.03484 22.9151 5.46085 23.1456 6.05726C23.321 6.50833 23.5315 7.18994 23.5867 8.4379C23.6468 9.79111 23.6618 10.1971 23.6618 13.6202C23.6618 17.0483 23.6468 17.4543 23.5867 18.8025C23.5315 20.0554 23.321 20.732 23.1456 21.1831C22.9151 21.7795 22.6344 22.2105 22.1883 22.6566C21.7373 23.1077 21.3113 23.3833 20.7149 23.6139C20.2638 23.7893 19.5822 23.9998 18.3342 24.0549C16.981 24.115 16.575 24.1301 13.1519 24.1301C9.72381 24.1301 9.31785 24.115 7.96965 24.0549C6.71669 23.9998 6.04008 23.7893 5.58901 23.6139C4.9926 23.3833 4.56158 23.1026 4.11552 22.6566C3.66445 22.2055 3.3888 21.7795 3.15825 21.1831C2.98284 20.732 2.77234 20.0504 2.71721 18.8025C2.65707 17.4493 2.64203 17.0433 2.64203 13.6202C2.64203 10.1921 2.65707 9.7861 2.71721 8.4379C2.77234 7.18493 2.98284 6.50833 3.15825 6.05726C3.3888 5.46085 3.66947 5.02983 4.11552 4.58377C4.56659 4.1327 4.9926 3.85705 5.58901 3.6265C6.04008 3.45109 6.7217 3.24059 7.96965 3.18546C9.31785 3.12531 9.72381 3.11028 13.1519 3.11028ZM13.1519 0.799805C9.66868 0.799805 9.23265 0.81484 7.86441 0.874983C6.50117 0.935125 5.56395 1.15565 4.75203 1.4714C3.90502 1.80218 3.18833 2.23821 2.47664 2.95491C1.75994 3.6666 1.32391 4.3833 0.993124 5.22529C0.677376 6.04223 0.456854 6.97443 0.396711 8.33766C0.336569 9.71092 0.321533 10.147 0.321533 13.6302C0.321533 17.1135 0.336569 17.5495 0.396711 18.9177C0.456854 20.281 0.677376 21.2182 0.993124 22.0301C1.32391 22.8771 1.75994 23.5938 2.47664 24.3055C3.18833 25.0172 3.90502 25.4582 4.74702 25.784C5.56395 26.0997 6.49616 26.3203 7.85939 26.3804C9.22763 26.4406 9.66367 26.4556 13.1469 26.4556C16.6302 26.4556 17.0662 26.4406 18.4345 26.3804C19.7977 26.3203 20.7349 26.0997 21.5468 25.784C22.3888 25.4582 23.1055 25.0172 23.8172 24.3055C24.5289 23.5938 24.9699 22.8771 25.2957 22.0351C25.6115 21.2182 25.832 20.286 25.8921 18.9227C25.9523 17.5545 25.9673 17.1185 25.9673 13.6352C25.9673 10.152 25.9523 9.71593 25.8921 8.34769C25.832 6.98446 25.6115 6.04724 25.2957 5.23531C24.98 4.3833 24.5439 3.6666 23.8272 2.95491C23.1155 2.24322 22.3988 1.80218 21.5568 1.47641C20.7399 1.16066 19.8077 0.940137 18.4445 0.879995C17.0712 0.81484 16.6352 0.799805 13.1519 0.799805Z" fill="white"/>
<path d="M13.1519 7.04004C9.51327 7.04004 6.56128 9.99203 6.56128 13.6307C6.56128 17.2693 9.51327 20.2213 13.1519 20.2213C16.7905 20.2213 19.7425 17.2693 19.7425 13.6307C19.7425 9.99203 16.7905 7.04004 13.1519 7.04004ZM13.1519 17.9058C10.7913 17.9058 8.87677 15.9912 8.87677 13.6307C8.87677 11.2701 10.7913 9.35553 13.1519 9.35553C15.5125 9.35553 17.427 11.2701 17.427 13.6307C17.427 15.9912 15.5125 17.9058 13.1519 17.9058Z" fill="white"/>
<path d="M21.5419 6.77888C21.5419 7.6309 20.8503 8.31753 20.0032 8.31753C19.1512 8.31753 18.4646 7.62589 18.4646 6.77888C18.4646 5.92686 19.1562 5.24023 20.0032 5.24023C20.8503 5.24023 21.5419 5.93187 21.5419 6.77888Z" fill="white"/>
</g>
<defs>
<clipPath id="clip0_1717_13259">
<rect width="25.6608" height="25.6608" fill="white" transform="translate(0.321533 0.799805)"/>
</clipPath>
</defs>
</svg>
