<svg width="222" height="280" viewBox="0 0 222 280" fill="none" xmlns="http://www.w3.org/2000/svg">
<g filter="url(#filter0_b_2295_4476)">
<path d="M0.706055 260.111L19.3201 278.725V70.9175C19.3201 60.4303 24.0943 50.5134 32.2919 43.9727L42.2901 35.9954C48.3965 31.1233 55.9767 28.4698 63.7886 28.4698H221.316V0.548828H159.959L141.345 19.1628H79.6432L61.0292 0.548828H19.3201L0.706055 19.1628V108.786L13.1154 121.195V178.761L0.706055 191.17V260.111Z" fill="url(#paint0_linear_2295_4476)" fill-opacity="0.4"/>
<path d="M0.706055 260.111L19.3201 278.725V70.9175C19.3201 60.4303 24.0943 50.5134 32.2919 43.9727L42.2901 35.9954C48.3965 31.1233 55.9767 28.4698 63.7886 28.4698H221.316V0.548828H159.959L141.345 19.1628H79.6432L61.0292 0.548828H19.3201L0.706055 19.1628V108.786L13.1154 121.195V178.761L0.706055 191.17V260.111Z" fill="url(#paint1_linear_2295_4476)" fill-opacity="0.3"/>
<path d="M0.706055 260.111L19.3201 278.725V70.9175C19.3201 60.4303 24.0943 50.5134 32.2919 43.9727L42.2901 35.9954C48.3965 31.1233 55.9767 28.4698 63.7886 28.4698H221.316V0.548828H159.959L141.345 19.1628H79.6432L61.0292 0.548828H19.3201L0.706055 19.1628V108.786L13.1154 121.195V178.761L0.706055 191.17V260.111Z" stroke="url(#paint2_linear_2295_4476)" stroke-width="0.689408"/>
<path d="M0.706055 260.111L19.3201 278.725V70.9175C19.3201 60.4303 24.0943 50.5134 32.2919 43.9727L42.2901 35.9954C48.3965 31.1233 55.9767 28.4698 63.7886 28.4698H221.316V0.548828H159.959L141.345 19.1628H79.6432L61.0292 0.548828H19.3201L0.706055 19.1628V108.786L13.1154 121.195V178.761L0.706055 191.17V260.111Z" stroke="url(#paint3_linear_2295_4476)" stroke-width="0.689408"/>
</g>
<defs>
<filter id="filter0_b_2295_4476" x="-61.6853" y="-61.8426" width="345.393" height="403.446" filterUnits="userSpaceOnUse" color-interpolation-filters="sRGB">
<feFlood flood-opacity="0" result="BackgroundImageFix"/>
<feGaussianBlur in="BackgroundImageFix" stdDeviation="31.0233"/>
<feComposite in2="SourceAlpha" operator="in" result="effect1_backgroundBlur_2295_4476"/>
<feBlend mode="normal" in="SourceGraphic" in2="effect1_backgroundBlur_2295_4476" result="shape"/>
</filter>
<linearGradient id="paint0_linear_2295_4476" x1="111.011" y1="0.548828" x2="111.011" y2="278.725" gradientUnits="userSpaceOnUse">
<stop offset="0.065" stop-color="#D9D9D9"/>
<stop offset="1" stop-color="#070707"/>
</linearGradient>
<linearGradient id="paint1_linear_2295_4476" x1="111.356" y1="34.3298" x2="111.011" y2="0.548829" gradientUnits="userSpaceOnUse">
<stop stop-opacity="0"/>
<stop offset="1" stop-color="white"/>
</linearGradient>
<linearGradient id="paint2_linear_2295_4476" x1="12.426" y1="0.548828" x2="8.97895" y2="269.073" gradientUnits="userSpaceOnUse">
<stop stop-color="#CCCCCC" stop-opacity="0"/>
<stop offset="0.315387" stop-color="#D8D8D8"/>
<stop offset="0.55" stop-color="#C4C4C4" stop-opacity="0.6"/>
<stop offset="0.911757" stop-color="#CCCCCC" stop-opacity="0"/>
</linearGradient>
<linearGradient id="paint3_linear_2295_4476" x1="111.356" y1="28.4698" x2="111.356" y2="5.71938" gradientUnits="userSpaceOnUse">
<stop stop-opacity="0"/>
<stop offset="1" stop-color="white"/>
</linearGradient>
</defs>
</svg>
