<svg width="27" height="27" viewBox="0 0 27 27" fill="none" xmlns="http://www.w3.org/2000/svg">
<g clip-path="url(#clip0_1717_13258)">
<path d="M24.4222 0.799805L2.55538 0.799805C1.5079 0.799805 0.660889 1.62676 0.660889 2.64919L0.660889 24.6062C0.660889 25.6286 1.5079 26.4606 2.55538 26.4606H24.4222C25.4697 26.4606 26.3217 25.6286 26.3217 24.6112V2.64919C26.3217 1.62676 25.4697 0.799805 24.4222 0.799805ZM8.27393 22.6666H4.4649L4.4649 10.4176H8.27393V22.6666ZM6.36941 8.74864C5.14652 8.74864 4.15918 7.7613 4.15918 6.54341C4.15918 5.32553 5.14652 4.33819 6.36941 4.33819C7.5873 4.33819 8.57464 5.32553 8.57464 6.54341C8.57464 7.75629 7.5873 8.74864 6.36941 8.74864ZM22.5277 22.6666H18.7237V16.7125C18.7237 15.2941 18.6986 13.4648 16.744 13.4648C14.7643 13.4648 14.4636 15.0135 14.4636 16.6123L14.4636 22.6666H10.6646L10.6646 10.4176H14.3132V12.0916H14.3634C14.8696 11.1293 16.1125 10.1119 17.9619 10.1119C21.816 10.1119 22.5277 12.6479 22.5277 15.9457V22.6666V22.6666Z" fill="white"/>
</g>
<defs>
<clipPath id="clip0_1717_13258">
<rect width="25.6608" height="25.6608" fill="white" transform="translate(0.660889 0.799805)"/>
</clipPath>
</defs>
</svg>
