<svg width="337" height="420" viewBox="0 0 337 420" fill="none" xmlns="http://www.w3.org/2000/svg" xmlns:xlink="http://www.w3.org/1999/xlink">
<path d="M39.9235 9L9 47.9818V331.818L40.7372 370.8H104.619L136.763 411H296.67L328 371.612V168.988L296.263 129.6V48.7939L264.119 9H39.9235Z" fill="#131313"/>
<path d="M39.9235 4.5H37.7493L36.398 6.20334L5.47456 45.1852L4.5 46.4137V47.9818V331.818V333.418L5.51032 334.659L37.2476 373.641L38.5981 375.3H40.7372H102.455L133.248 413.81L134.599 415.5H136.763H296.67H298.84L300.191 413.801L331.522 374.413L332.5 373.184V371.612V168.988V167.401L331.504 166.164L300.763 128.013V48.7939V47.2035L299.763 45.9663L267.619 6.17233L266.268 4.5H264.119H39.9235Z" stroke="url(#paint0_linear_1717_13241)" stroke-opacity="0.37" stroke-width="9"/>
<defs>
<pattern id="pattern0_1717_13241" patternContentUnits="objectBoundingBox" width="1" height="1">
<use xlink:href="#image0_1717_13241" transform="matrix(0.00195312 0 0 0.00154987 0 -0.0951493)"/>
</pattern>
<linearGradient id="paint0_linear_1717_13241" x1="-19" y1="-44.5" x2="362.5" y2="411" gradientUnits="userSpaceOnUse">
<stop stop-color="#7487ED" stop-opacity="0.8"/>
<stop offset="1" stop-color="#152787"/>
</linearGradient>
</defs>
</svg>
