<svg width="96" height="445" viewBox="0 0 96 445" fill="none" xmlns="http://www.w3.org/2000/svg">
<g filter="url(#filter0_b_2297_4477)">
<path d="M11.1585 127.152V0.548828H72.1711L95.6109 24.7996V414.594L67.3452 443.838H29.4278L1.16211 414.594V378.218L40.1136 337.919V157.109L11.1585 127.152Z" fill="url(#paint0_linear_2297_4477)"/>
<path d="M11.1585 127.152V0.548828H72.1711L95.6109 24.7996V414.594L67.3452 443.838H29.4278L1.16211 414.594V378.218L40.1136 337.919V157.109L11.1585 127.152Z" fill="url(#paint1_linear_2297_4477)" fill-opacity="0.8"/>
<path d="M11.1585 127.152V0.548828H72.1711L95.6109 24.7996V414.594L67.3452 443.838H29.4278L1.16211 414.594V378.218L40.1136 337.919V157.109L11.1585 127.152Z" stroke="url(#paint2_linear_2297_4477)" stroke-width="0.689408"/>
</g>
<defs>
<filter id="filter0_b_2297_4477" x="-61.2293" y="-61.8426" width="219.232" height="568.072" filterUnits="userSpaceOnUse" color-interpolation-filters="sRGB">
<feFlood flood-opacity="0" result="BackgroundImageFix"/>
<feGaussianBlur in="BackgroundImageFix" stdDeviation="31.0233"/>
<feComposite in2="SourceAlpha" operator="in" result="effect1_backgroundBlur_2297_4477"/>
<feBlend mode="normal" in="SourceGraphic" in2="effect1_backgroundBlur_2297_4477" result="shape"/>
</filter>
<linearGradient id="paint0_linear_2297_4477" x1="48.3865" y1="0.548828" x2="48.3865" y2="443.838" gradientUnits="userSpaceOnUse">
<stop stop-color="#343436"/>
<stop offset="0.815" stop-color="#5D268B"/>
<stop offset="0.92" stop-color="#AC12E1"/>
<stop offset="0.995" stop-color="#BE00FF"/>
</linearGradient>
<linearGradient id="paint1_linear_2297_4477" x1="48.7312" y1="416.021" x2="48.3623" y2="443.838" gradientUnits="userSpaceOnUse">
<stop stop-opacity="0"/>
<stop offset="1" stop-color="#E8A7FF"/>
</linearGradient>
<linearGradient id="paint2_linear_2297_4477" x1="48.3865" y1="0.548828" x2="48.3865" y2="443.838" gradientUnits="userSpaceOnUse">
<stop stop-color="#D8D8D8"/>
<stop offset="1" stop-color="white" stop-opacity="0.28"/>
</linearGradient>
</defs>
</svg>
