<svg width="549" height="810" viewBox="0 0 549 810" fill="none" xmlns="http://www.w3.org/2000/svg">
<path opacity="0.01" fill-rule="evenodd" clip-rule="evenodd" d="M37.5 3.50016C35.1667 3.50016 32.8333 3.50016 30.5 3.50016C31.1342 2.05336 32.3009 1.38676 34 1.50016C35.6991 1.38676 36.8658 2.05336 37.5 3.50016Z" fill="black"/>
<path opacity="0.021" fill-rule="evenodd" clip-rule="evenodd" d="M480.5 1.50005C480.027 2.90635 479.027 3.57305 477.5 3.50005C394.833 3.50005 312.167 3.50005 229.5 3.50005C180.754 2.88395 132.088 2.88395 83.5 3.50005C77.5 3.50005 71.5 3.50005 65.5 3.50005C203.496 1.50165 341.829 0.835049 480.5 1.50005Z" fill="#151414"/>
<path opacity="0.021" fill-rule="evenodd" clip-rule="evenodd" d="M516.5 1.49985C524.84 1.33345 533.173 1.50015 541.5 1.99985C542.056 2.38245 542.389 2.88245 542.5 3.49985C533.435 4.13625 524.769 3.46965 516.5 1.49985Z" fill="#171717"/>
<path opacity="0.229" fill-rule="evenodd" clip-rule="evenodd" d="M229.5 3.5C312.167 3.5 394.833 3.5 477.5 3.5C477.5 3.8333 477.5 4.1667 477.5 4.5C394.998 4.1673 312.665 4.5007 230.5 5.5C230.167 5.5 229.833 5.5 229.5 5.5C229.5 4.8333 229.5 4.1667 229.5 3.5Z" fill="#C7C2BC"/>
<path opacity="0.439" fill-rule="evenodd" clip-rule="evenodd" d="M230.5 5.50012C312.665 4.50082 394.998 4.16742 477.5 4.50012C478.833 9.50012 478.833 14.5001 477.5 19.5001C477.819 14.6368 477.486 9.97012 476.5 5.50012C394.833 5.50012 313.167 5.50012 231.5 5.50012C231.167 5.50012 230.833 5.50012 230.5 5.50012Z" fill="#77726F"/>
<path opacity="0.011" fill-rule="evenodd" clip-rule="evenodd" d="M30.4981 3.49983C26.9445 5.00623 23.1112 6.33963 18.9981 7.49983C18.0527 7.09443 17.386 6.42783 16.9981 5.49983C15.8885 7.03663 14.3885 7.70333 12.4981 7.49983C12.5069 14.1471 9.17361 16.8138 2.49811 15.4998C2.12701 19.0032 3.12701 22.0032 5.49811 24.4998C3.40591 24.4384 1.90591 23.4384 0.998108 21.4998C0.501508 19.19 0.334808 16.8566 0.498108 14.4998C7.39721 15.9871 10.7306 13.3204 10.4981 6.49983C12.9522 6.67933 15.1189 6.01263 16.9981 4.49983C17.9435 4.90523 18.6102 5.57183 18.9981 6.49983C19.4981 5.33313 20.3314 4.49983 21.4981 3.99983C24.4797 3.50183 27.4797 3.33523 30.4981 3.49983Z" fill="#262425"/>
<path opacity="0.582" fill-rule="evenodd" clip-rule="evenodd" d="M230.5 5.5C230.833 5.5 231.167 5.5 231.5 5.5C231.5 9.8333 231.5 14.1667 231.5 18.5C313.167 18.5 394.833 18.5 476.5 18.5C476.5 14.1667 476.5 9.8333 476.5 5.5C477.486 9.97 477.819 14.6367 477.5 19.5C395.167 19.5 312.833 19.5 230.5 19.5C230.5 14.8333 230.5 10.1667 230.5 5.5Z" fill="#44413E"/>
<path opacity="0.972" fill-rule="evenodd" clip-rule="evenodd" d="M231.5 5.5C313.167 5.5 394.833 5.5 476.5 5.5C476.5 9.8333 476.5 14.1667 476.5 18.5C394.833 18.5 313.167 18.5 231.5 18.5C231.5 14.1667 231.5 9.8333 231.5 5.5Z" fill="#1A1A1B"/>
<path opacity="0.286" fill-rule="evenodd" clip-rule="evenodd" d="M229.499 5.5C229.832 5.5 230.166 5.5 230.499 5.5C230.499 10.1667 230.499 14.8333 230.499 19.5C312.832 19.5 395.166 19.5 477.499 19.5C476.08 20.4511 474.414 20.7845 472.499 20.5C401.491 19.8365 330.824 20.5032 260.499 22.5C260.388 23.1174 260.055 23.6174 259.499 24C255.641 24.8099 251.975 24.6433 248.499 23.5C252.02 22.8337 255.686 22.1671 259.499 21.5C255.216 20.5078 250.883 20.1744 246.499 20.5C241.192 19.9735 236.192 20.6402 231.499 22.5C229.707 17.0539 229.041 11.3872 229.499 5.5Z" fill="#A6A39F"/>
<path opacity="0.157" fill-rule="evenodd" clip-rule="evenodd" d="M246.5 20.5001C250.884 20.1745 255.217 20.5079 259.5 21.5001C255.687 22.1672 252.021 22.8338 248.5 23.5001C247.833 23.5001 247.167 23.5001 246.5 23.5001C246.5 22.5001 246.5 21.5001 246.5 20.5001Z" fill="#E8E4DE"/>
<path opacity="0.11" fill-rule="evenodd" clip-rule="evenodd" d="M472.5 20.5002C472.5 21.1669 472.5 21.8335 472.5 22.5002C401.833 22.5002 331.167 22.5002 260.5 22.5002C330.825 20.5034 401.492 19.8367 472.5 20.5002Z" fill="#2D2A2F"/>
<path fill-rule="evenodd" clip-rule="evenodd" d="M547.5 47.5C547.5 48.5 547.5 49.5 547.5 50.5C545.888 51.4523 544.388 51.7856 543 51.5C542.677 54.1415 541.677 56.4748 540 58.5C538.324 57.9389 536.991 56.9389 536 55.5C534.612 56.5536 533.112 56.7203 531.5 56C530.884 52.7125 529.384 49.8792 527 47.5C526.667 42.5 526.333 37.5 526 32.5C524.742 51.4812 524.409 70.481 525 89.5C521.612 90.631 518.279 90.298 515 88.5C513.013 89.154 511.68 90.487 511 92.5C509.951 105.488 508.951 118.488 508 131.5C504.387 133.323 500.554 133.323 496.5 131.5C496.709 130.914 497.043 130.414 497.5 130C496.128 128.758 495.128 127.258 494.5 125.5C493.675 124.614 492.675 124.281 491.5 124.5C491.629 120.122 491.629 115.955 491.5 112C492.167 111.667 492.833 111.333 493.5 111C492.557 103.877 492.223 96.877 492.5 90C493.191 88.933 493.691 87.766 494 86.5C494.167 77.5 494.333 68.5 494.5 59.5C494.347 48.2087 493.681 37.2087 492.5 26.5C494.817 21.1751 498.817 18.1751 504.5 17.5C506.201 18.802 507.368 20.4687 508 22.5C510.256 19.9289 512.422 19.9289 514.5 22.5C514.5 43.8333 514.5 65.1667 514.5 86.5C517.167 86.5 519.833 86.5 522.5 86.5C522.262 65.1508 522.596 43.8174 523.5 22.5C525.117 23.038 526.784 23.3713 528.5 23.5C528.335 26.5184 528.502 29.5184 529 32.5C529.74 29.8379 530.406 26.8379 531 23.5C531.383 22.944 531.883 22.6107 532.5 22.5C533.128 18.8062 534.961 15.8062 538 13.5C541.207 14.7105 542.874 17.0438 543 20.5C544.333 21.1667 545.333 22.1667 546 23.5C546.171 31.6772 546.671 39.6772 547.5 47.5Z" fill="#D5DDD2"/>
<path opacity="0.069" fill-rule="evenodd" clip-rule="evenodd" d="M246.5 20.4999C246.5 21.4999 246.5 22.4999 246.5 23.4999C240.419 22.0617 234.419 22.395 228.5 24.4999C228.821 22.9518 229.821 22.2851 231.5 22.4999C236.193 20.6401 241.193 19.9734 246.5 20.4999Z" fill="#252224"/>
<path opacity="0.122" fill-rule="evenodd" clip-rule="evenodd" d="M204.5 24.5C200.38 24.9771 196.38 25.9771 192.5 27.5C189.5 27.5 186.5 27.5 183.5 27.5C190.234 25.5472 197.234 24.5472 204.5 24.5Z" fill="#625D61"/>
<path opacity="0.039" fill-rule="evenodd" clip-rule="evenodd" d="M204.5 24.5C212.313 24.1432 220.313 24.1432 228.5 24.5C220.659 25.5776 212.659 25.5776 204.5 24.5Z" fill="#4A4A4B"/>
<path opacity="0.011" fill-rule="evenodd" clip-rule="evenodd" d="M183.501 27.5C186.501 27.5 189.501 27.5 192.501 27.5C189.374 28.5808 186.041 29.2474 182.501 29.5C182.329 28.5084 182.663 27.8417 183.501 27.5Z" fill="#090909"/>
<path opacity="0.01" fill-rule="evenodd" clip-rule="evenodd" d="M182.5 29.5001C181.486 30.6738 180.153 31.3405 178.5 31.5001C179.287 29.8959 180.62 29.2292 182.5 29.5001Z" fill="black"/>
<path opacity="0.01" fill-rule="evenodd" clip-rule="evenodd" d="M178.5 31.5C178.179 33.0481 177.179 33.7148 175.5 33.5C176.29 32.5987 177.29 31.9321 178.5 31.5Z" fill="#151515"/>
<path opacity="0.995" fill-rule="evenodd" clip-rule="evenodd" d="M30.5011 3.5C32.8344 3.5 35.1678 3.5 37.5011 3.5C38.5011 3.5 39.5011 3.5 40.5011 3.5C43.9388 4.8232 47.7721 5.4898 52.0011 5.5C56.2301 5.4898 60.0634 4.8232 63.5011 3.5C64.1678 3.5 64.8344 3.5 65.5011 3.5C71.5011 3.5 77.5011 3.5 83.5011 3.5C81.9751 5.13 79.9751 5.9633 77.5011 6C81.1861 6.9145 80.8531 7.5811 76.5011 8C76.8341 8.3333 77.1681 8.6667 77.5011 9C86.0361 9.2095 94.5361 9.7095 103.001 10.5C104.151 9.5761 105.151 9.5761 106.001 10.5C106.668 9.8333 107.334 9.1667 108.001 8.5C112.44 10.7549 116.94 10.9215 121.501 9C118.938 8.237 118.938 7.737 121.501 7.5C122.501 8.1667 123.501 8.8333 124.501 9.5C127.396 9.281 130.23 9.281 133.001 9.5C133.726 7.842 134.893 7.342 136.501 8C135.834 8.3333 135.168 8.6667 134.501 9C136.102 9.2734 137.602 9.7734 139.001 10.5C140.02 9.3128 141.187 8.3128 142.501 7.5C146.235 9.9938 149.902 9.9938 153.501 7.5C154.599 8.6155 155.766 8.6155 157.001 7.5C158.302 8.8932 159.802 9.3932 161.501 9C159.066 7.9966 159.399 7.4966 162.501 7.5C166.425 7.7015 166.425 8.2015 162.501 9C163.767 9.3095 164.934 9.8095 166.001 10.5C169.447 9.608 173.114 9.608 177.001 10.5C180.105 10.1493 179.938 9.6493 176.501 9C178.801 8.3417 181.134 7.8417 183.501 7.5C187.994 8.3081 192.661 8.3081 197.501 7.5C198.815 8.3128 199.982 9.3128 201.001 10.5C207.233 9.561 213.733 9.3944 220.501 10C219.389 13.3042 217.556 16.1375 215.001 18.5C213.498 14.1898 211.831 13.8564 210.001 17.5C207.611 15.1592 205.111 14.6592 202.501 16C202.834 16.3333 203.168 16.6667 203.501 17C201.001 16.8333 198.501 16.6667 196.001 16.5C194.325 17.0611 192.992 18.0611 192.001 19.5C191.001 18.1667 190.001 18.1667 189.001 19.5C187.489 17.0426 186.155 17.0426 185.001 19.5C182.725 18.355 180.558 18.6883 178.501 20.5C175.122 19.4862 171.788 18.6528 168.501 18C170.443 19.9086 172.11 22.0753 173.501 24.5C174.452 23.6744 175.452 23.5078 176.501 24C174.155 27.2195 172.488 30.7195 171.501 34.5C166.363 35.2331 162.363 37.7331 159.501 42C155.817 41.7612 153.15 43.2612 151.501 46.5C151.71 47.086 152.044 47.586 152.501 48C151.07 49.5621 149.57 51.0621 148.001 52.5C143.901 49.8768 140.235 50.2102 137.001 53.5C136.668 52.8333 136.334 52.1667 136.001 51.5C135.334 52.8333 134.668 52.8333 134.001 51.5C129.443 55.2717 124.776 55.2717 120.001 51.5C114.251 52.6406 108.417 52.8072 102.501 52C99.5781 51.7934 97.7451 50.2934 97.0011 47.5C96.6681 48.1667 96.3341 48.8333 96.0011 49.5C90.9381 48.1385 85.7711 47.6385 80.5011 48C77.5281 51.4932 73.8611 52.6598 69.5011 51.5C66.9075 52.3842 64.4075 53.3842 62.0011 54.5C58.9381 54.065 58.7714 53.2316 61.5011 52C58.3544 50.5799 55.1877 50.4132 52.0011 51.5C50.6678 50.8333 49.3344 50.1667 48.0011 49.5C46.1895 51.3116 44.3562 53.1449 42.5011 55C44.9585 56.5123 44.9585 57.8456 42.5011 59C43.2932 61.3361 44.6265 61.8361 46.5011 60.5C46.8344 61 47.1678 61.5 47.5011 62C47.0453 65.1085 46.8787 68.275 47.0011 71.5C46.3468 70.304 45.8468 70.304 45.5011 71.5C47.5028 78.355 48.0028 85.355 47.0011 92.5C45.946 98.361 44.7793 103.528 43.5011 108C43.6678 109.833 43.8344 111.667 44.0011 113.5C44.4713 111.226 45.4713 109.226 47.0011 107.5C47.3181 112.141 47.4847 116.641 47.5011 121C46.5011 121.833 45.5011 122.667 44.5011 123.5C45.5011 124.333 46.5011 125.167 47.5011 126C45.2758 128.025 44.9425 130.358 46.5011 133C45.8711 134.892 44.8711 136.559 43.5011 138C44.6732 138.419 45.6732 139.085 46.5011 140C45.5121 141.82 44.5121 143.653 43.5011 145.5C44.8263 149.838 44.8263 154.171 43.5011 158.5C42.2429 157.984 41.2429 158.65 40.5011 160.5C39.696 163.304 39.0294 166.138 38.5011 169C35.6116 170.892 35.9449 171.725 39.5011 171.5C39.6506 172.552 39.4839 173.552 39.0011 174.5C38.6678 174.167 38.3344 173.833 38.0011 173.5C36.9837 176.028 35.817 176.028 34.5011 173.5C33.5756 174.641 32.7423 174.641 32.0011 173.5C29.0458 177.244 26.2125 181.078 23.5011 185C24.3092 185.308 24.9758 185.808 25.5011 186.5C24.8566 187.732 24.6899 189.065 25.0011 190.5C24.6678 190.167 24.3344 189.833 24.0011 189.5C23.6422 192.544 22.9756 192.878 22.0011 190.5C22.0365 194.245 21.0365 194.912 19.0011 192.5C18.8909 194.848 17.7242 196.348 15.5011 197C16.6352 198.016 16.3019 198.683 14.5011 199C15.2535 199.671 15.5869 200.504 15.5011 201.5C14.5011 201.5 13.5011 201.5 12.5011 201.5C12.7856 199.585 12.4522 197.919 11.5011 196.5C11.1678 196.5 10.8344 196.5 10.5011 196.5C10.5011 195.833 10.5011 195.167 10.5011 194.5C10.5011 193.167 9.83441 192.5 8.50111 192.5C8.50111 192.167 8.50111 191.833 8.50111 191.5C6.87761 161.196 6.21091 130.863 6.50111 100.5C7.82081 97.572 8.48751 94.239 8.50111 90.5C8.48751 86.761 7.82081 83.428 6.50111 80.5C5.21031 76.601 5.21031 72.601 6.50111 68.5C7.81281 66.2568 8.47941 63.5902 8.50111 60.5C8.07661 56.0968 7.41001 51.7635 6.50111 47.5C6.50111 47.1667 6.50111 46.8333 6.50111 46.5C7.82211 43.4018 8.48881 39.9018 8.50111 36C8.33441 32.5 8.16781 29 8.00111 25.5C7.33031 24.7476 6.49701 24.4142 5.50111 24.5C3.13001 22.0034 2.13001 19.0034 2.50111 15.5C9.17661 16.814 12.5099 14.1473 12.5011 7.5C14.3915 7.7035 15.8915 7.0368 17.0011 5.5C17.389 6.428 18.0557 7.0946 19.0011 7.5C23.1142 6.3398 26.9475 5.0064 30.5011 3.5Z" fill="#DBDBD2"/>
<path fill-rule="evenodd" clip-rule="evenodd" d="M148.501 43.4999C144.834 43.4999 141.168 43.4999 137.501 43.4999C137.384 41.5164 138.051 39.8497 139.501 38.4999C145.411 32.951 151.077 27.2843 156.501 21.4999C160.987 18.6298 165.321 18.9631 169.501 22.4999C167.577 24.0086 166.41 26.0086 166.001 28.4999C159.704 32.9637 153.871 37.9637 148.501 43.4999Z" fill="#B5D4C1"/>
<path fill-rule="evenodd" clip-rule="evenodd" d="M147.499 21.4999C142.301 28.9574 136.301 35.7908 129.499 41.9999C124.845 44.3123 119.845 45.1456 114.499 44.4999C114.28 43.3249 114.613 42.3249 115.499 41.4999C119.521 37.1464 123.521 32.813 127.499 28.4999C129.962 26.5388 132.296 24.3721 134.499 21.9999C138.925 20.3482 143.258 20.1815 147.499 21.4999Z" fill="#B3D1C0"/>
<path opacity="0.055" fill-rule="evenodd" clip-rule="evenodd" d="M40.5 3.5C48.1667 3.5 55.8333 3.5 63.5 3.5C60.0623 4.8232 56.229 5.4898 52 5.5C47.771 5.4898 43.9377 4.8232 40.5 3.5Z" fill="#313130"/>
<path fill-rule="evenodd" clip-rule="evenodd" d="M86.5 18.5002C66.5 18.5002 46.5 18.5002 26.5 18.5002C26.5 25.8335 26.5 33.1669 26.5 40.5002C46.5 40.5002 66.5 40.5002 86.5 40.5002C87.159 37.545 87.492 34.545 87.5 31.5002C97.348 31.1921 107.014 31.8587 116.5 33.5002C116.5 30.8335 116.5 28.1669 116.5 25.5002C117.721 26.0285 118.887 26.6952 120 27.5002C120.333 27.1669 120.667 26.8335 121 26.5002C122.897 28.0165 125.064 28.6832 127.5 28.5002C123.522 32.8133 119.522 37.1467 115.5 41.5002C114.614 42.3252 114.281 43.3252 114.5 44.5002C119.846 45.1459 124.846 44.3126 129.5 42.0002C136.302 35.7911 142.302 28.9577 147.5 21.5002C150.5 21.5002 153.5 21.5002 156.5 21.5002C151.076 27.2846 145.41 32.9513 139.5 38.5002C138.05 39.85 137.383 41.5167 137.5 43.5002C141.167 43.5002 144.833 43.5002 148.5 43.5002C148.67 44.8223 148.337 45.9889 147.5 47.0002C144.628 47.315 141.795 47.815 139 48.5002C135.63 46.9442 132.13 45.6108 128.5 44.5002C121.847 45.7519 115.18 45.7519 108.5 44.5002C107.621 41.4737 107.287 38.4737 107.5 35.5002C103.544 36.7587 99.711 36.4254 96 34.5002C94.333 35.5002 92.667 36.5002 91 37.5002C89.834 40.5034 88.167 43.17 86 45.5002C84.769 44.8924 83.436 44.5591 82 44.5002C78.812 45.0628 75.645 45.7295 72.5 46.5002C58.337 45.7804 44.5037 45.7804 31 46.5002C29.4774 44.2342 27.3108 43.0675 24.5 43.0002C23.8095 41.9328 23.3095 40.7661 23 39.5002C22.6667 40.1669 22.3333 40.8335 22 41.5002C21.7707 38.5426 20.604 36.0426 18.5 34.0002C19.0177 29.0351 20.1843 24.2018 22 19.5002C23.0674 18.8097 24.2341 18.3097 25.5 18.0002C25.1667 17.6669 24.8333 17.3335 24.5 17.0002C25.8333 16.0002 27.1667 15.0002 28.5 14.0002C37.0593 14.9209 45.7259 15.4209 54.5 15.5002C63.6387 15.5783 72.4721 14.9117 81 13.5002C86.055 12.3379 87.889 14.0046 86.5 18.5002Z" fill="#D2DFD2"/>
<path opacity="0.013" fill-rule="evenodd" clip-rule="evenodd" d="M175.5 33.5C175.271 35.433 174.438 37.0997 173 38.5C169.5 40.6667 166.667 43.5 164.5 47C163.552 47.4828 162.552 47.6495 161.5 47.5C165.806 42.5271 170.473 37.8604 175.5 33.5Z" fill="#211F20"/>
<path opacity="0.149" fill-rule="evenodd" clip-rule="evenodd" d="M5.5 24.5C6.4959 24.4142 7.3292 24.7476 8 25.5C8.1667 29 8.3333 32.5 8.5 36C8.4877 39.9018 7.821 43.4018 6.5 46.5C6.7973 39.0796 6.464 31.7463 5.5 24.5Z" fill="#2E2C2D"/>
<path fill-rule="evenodd" clip-rule="evenodd" d="M86.5 18.5C86.5 21.5 86.5 24.5 86.5 27.5C92.509 27.6662 98.509 27.4995 104.5 27C108.225 24.3677 112.225 23.8677 116.5 25.5C116.5 28.1667 116.5 30.8333 116.5 33.5C107.014 31.8585 97.348 31.1919 87.5 31.5C87.492 34.5448 87.159 37.5448 86.5 40.5C66.5 40.5 46.5 40.5 26.5 40.5C26.5 33.1667 26.5 25.8333 26.5 18.5C46.5 18.5 66.5 18.5 86.5 18.5Z" fill="#B7CDBD"/>
<path fill-rule="evenodd" clip-rule="evenodd" d="M29.4998 21.5C47.4998 21.5 65.4998 21.5 83.4998 21.5C83.4998 26.8333 83.4998 32.1667 83.4998 37.5C65.83 37.6666 48.1633 37.4999 30.4998 37C29.5284 31.9283 29.1951 26.7616 29.4998 21.5Z" fill="#D7DFD5"/>
<path fill-rule="evenodd" clip-rule="evenodd" d="M532.499 22.4999C535.053 21.6119 537.72 21.2785 540.499 21.4999C541.429 32.1279 541.762 42.7946 541.499 53.4999C538.222 53.7838 535.056 53.4504 531.999 52.4999C531.369 42.4836 531.536 32.4836 532.499 22.4999Z" fill="#B7D3C1"/>
<path opacity="0.049" fill-rule="evenodd" clip-rule="evenodd" d="M472.5 22.5001C474.099 22.2323 475.432 22.5656 476.5 23.5001C476.5 71.8331 476.5 120.167 476.5 168.5C475.833 120.665 475.167 72.6651 474.5 24.5001C473.478 24.1446 472.811 23.4779 472.5 22.5001Z" fill="#292929"/>
<path opacity="0.011" fill-rule="evenodd" clip-rule="evenodd" d="M158.5 50.5C156.542 53.1245 154.209 55.4578 151.5 57.5C149.604 58.4656 147.604 58.7989 145.5 58.5C149.893 56.1269 154.226 53.4602 158.5 50.5Z" fill="#1D1B1C"/>
<path opacity="0.155" fill-rule="evenodd" clip-rule="evenodd" d="M6.50077 47.5C7.40968 51.7635 8.07628 56.0968 8.50078 60.5C8.47908 63.5902 7.81247 66.2568 6.50077 68.5C6.20808 61.305 6.20808 54.305 6.50077 47.5Z" fill="#2F2E2F"/>
<path opacity="0.016" fill-rule="evenodd" clip-rule="evenodd" d="M145.5 58.4998C145.389 59.1172 145.056 59.6172 144.5 59.9998C115.156 61.1682 85.822 61.6682 56.5 61.4998C69.6441 59.4777 82.977 59.1443 96.5 60.4998C112.782 58.7245 129.115 58.0579 145.5 58.4998Z" fill="#2A2829"/>
<path fill-rule="evenodd" clip-rule="evenodd" d="M24.5 71.5C31.8776 69.874 34.2109 72.541 31.5 79.5C24.254 81.435 21.9207 78.768 24.5 71.5Z" fill="#67C6A1"/>
<path opacity="0.932" fill-rule="evenodd" clip-rule="evenodd" d="M229.5 3.50016C229.5 4.16686 229.5 4.83346 229.5 5.50016C229.042 11.3874 229.708 17.0541 231.5 22.5002C229.821 22.2854 228.821 22.9521 228.5 24.5002C220.313 24.1434 212.313 24.1434 204.5 24.5002C197.234 24.5474 190.234 25.5474 183.5 27.5002C182.662 27.8419 182.328 28.5086 182.5 29.5002C180.62 29.2293 179.287 29.896 178.5 31.5002C177.29 31.9323 176.29 32.5989 175.5 33.5002C170.473 37.8606 165.806 42.5273 161.5 47.5002C161.19 49.1438 160.19 50.1438 158.5 50.5002C154.226 53.4604 149.893 56.1271 145.5 58.5002C129.115 58.0583 112.782 58.7249 96.5 60.5002C82.977 59.1447 69.6441 59.4781 56.5 61.5002C56.1667 62.5002 55.5 63.1669 54.5 63.5002C54.1172 90.7352 53.1172 118.068 51.5 145.5C51.6399 147.03 52.3065 148.03 53.5 148.5C54.8333 153.167 54.8333 157.833 53.5 162.5C51.8235 163.183 51.1568 164.517 51.5 166.5C49.9519 166.821 49.2852 167.821 49.5 169.5C46.2092 172.412 44.2092 176.078 43.5 180.5C41.9519 180.821 41.2852 181.821 41.5 183.5C40.8333 183.5 40.5 183.833 40.5 184.5C39.1667 185.167 38.1667 186.167 37.5 187.5C34.5821 188.749 31.9154 190.415 29.5 192.5C28.5 193.167 27.5 193.833 26.5 194.5C25.5009 255.664 25.1676 316.998 25.5 378.5C25.5 459.167 25.5 539.833 25.5 620.5C25.1667 620.5 24.8333 620.5 24.5 620.5C24.5 478.833 24.5 337.167 24.5 195.5C22.6203 195.229 21.287 195.896 20.5 197.5C20.5 197.833 20.5 198.167 20.5 198.5C18.5956 198.738 17.2623 199.738 16.5 201.5C16.1667 201.5 15.8333 201.5 15.5 201.5C15.5858 200.504 15.2524 199.671 14.5 199C16.3008 198.683 16.6341 198.016 15.5 197C17.7231 196.348 18.8898 194.848 19 192.5C21.0354 194.912 22.0354 194.245 22 190.5C22.9745 192.878 23.6411 192.544 24 189.5C24.3333 189.833 24.6667 190.167 25 190.5C24.6888 189.065 24.8555 187.732 25.5 186.5C24.9747 185.808 24.3081 185.308 23.5 185C26.2114 181.078 29.0447 177.244 32 173.5C32.7412 174.641 33.5745 174.641 34.5 173.5C35.8159 176.028 36.9826 176.028 38 173.5C38.3333 173.833 38.6667 174.167 39 174.5C39.4828 173.552 39.6495 172.552 39.5 171.5C35.9438 171.725 35.6105 170.892 38.5 169C39.0283 166.138 39.6949 163.304 40.5 160.5C41.2418 158.65 42.2418 157.984 43.5 158.5C44.8252 154.171 44.8252 149.838 43.5 145.5C44.511 143.653 45.511 141.82 46.5 140C45.6721 139.085 44.6721 138.419 43.5 138C44.87 136.559 45.87 134.892 46.5 133C44.9414 130.358 45.2747 128.025 47.5 126C46.5 125.167 45.5 124.333 44.5 123.5C45.5 122.667 46.5 121.833 47.5 121C47.4836 116.641 47.317 112.141 47 107.5C45.4702 109.226 44.4702 111.226 44 113.5C43.8333 111.667 43.6667 109.833 43.5 108C44.7782 103.528 45.9449 98.3612 47 92.5002C48.0017 85.3552 47.5017 78.3552 45.5 71.5002C45.8457 70.3042 46.3457 70.3042 47 71.5002C46.8776 68.2752 47.0442 65.1087 47.5 62.0002C47.1667 61.5002 46.8333 61.0002 46.5 60.5002C44.6254 61.8363 43.2921 61.3363 42.5 59.0002C44.9574 57.8458 44.9574 56.5125 42.5 55.0002C44.3551 53.1451 46.1884 51.3118 48 49.5002C49.3333 50.1669 50.6667 50.8335 52 51.5002C55.1866 50.4134 58.3533 50.5801 61.5 52.0002C58.7703 53.2318 58.937 54.0652 62 54.5002C64.4064 53.3844 66.9064 52.3844 69.5 51.5002C73.86 52.66 77.527 51.4934 80.5 48.0002C85.77 47.6387 90.937 48.1387 96 49.5002C96.333 48.8335 96.667 48.1669 97 47.5002C97.744 50.2936 99.577 51.7936 102.5 52.0002C108.416 52.8074 114.25 52.6408 120 51.5002C124.775 55.2719 129.442 55.2719 134 51.5002C134.667 52.8335 135.333 52.8335 136 51.5002C136.333 52.1669 136.667 52.8335 137 53.5002C140.234 50.2104 143.9 49.877 148 52.5002C149.569 51.0623 151.069 49.5623 152.5 48.0002C152.043 47.5862 151.709 47.0862 151.5 46.5002C153.149 43.2614 155.816 41.7614 159.5 42.0002C162.362 37.7333 166.362 35.2333 171.5 34.5002C172.487 30.7197 174.154 27.2197 176.5 24.0002C175.451 23.508 174.451 23.6746 173.5 24.5002C172.109 22.0755 170.442 19.9088 168.5 18.0002C171.787 18.653 175.121 19.4864 178.5 20.5002C180.557 18.6885 182.724 18.3552 185 19.5002C186.154 17.0428 187.488 17.0428 189 19.5002C190 18.1669 191 18.1669 192 19.5002C192.991 18.0613 194.324 17.0613 196 16.5002C198.5 16.6669 201 16.8335 203.5 17.0002C203.167 16.6669 202.833 16.3335 202.5 16.0002C205.11 14.6594 207.61 15.1594 210 17.5002C211.83 13.8566 213.497 14.19 215 18.5002C217.555 16.1377 219.388 13.3044 220.5 10.0002C213.732 9.39456 207.232 9.56116 201 10.5002C199.981 9.31296 198.814 8.31296 197.5 7.50016C192.66 8.30826 187.993 8.30826 183.5 7.50016C181.133 7.84186 178.8 8.34186 176.5 9.00016C179.937 9.64946 180.104 10.1495 177 10.5002C173.113 9.60816 169.446 9.60816 166 10.5002C164.933 9.80966 163.766 9.30966 162.5 9.00016C166.424 8.20166 166.424 7.70166 162.5 7.50016C159.398 7.49676 159.065 7.99676 161.5 9.00016C159.801 9.39336 158.301 8.89336 157 7.50016C155.765 8.61566 154.598 8.61566 153.5 7.50016C149.901 9.99396 146.234 9.99396 142.5 7.50016C141.186 8.31296 140.019 9.31296 139 10.5002C137.601 9.77356 136.101 9.27356 134.5 9.00016C135.167 8.66686 135.833 8.33346 136.5 8.00016C134.892 7.34216 133.725 7.84216 133 9.50016C130.229 9.28116 127.395 9.28116 124.5 9.50016C123.5 8.83346 122.5 8.16686 121.5 7.50016C118.937 7.73716 118.937 8.23716 121.5 9.00016C116.939 10.9217 112.439 10.7551 108 8.50016C107.333 9.16686 106.667 9.83346 106 10.5002C105.15 9.57626 104.15 9.57626 103 10.5002C94.535 9.70966 86.035 9.20966 77.5 9.00016C77.167 8.66686 76.833 8.33346 76.5 8.00016C80.852 7.58126 81.185 6.91466 77.5 6.00016C79.974 5.96346 81.974 5.13016 83.5 3.50016C132.088 2.88406 180.754 2.88406 229.5 3.50016Z" fill="#DFDED9"/>
<path opacity="0.136" fill-rule="evenodd" clip-rule="evenodd" d="M6.5 80.5C7.8197 83.428 8.4864 86.761 8.5 90.5C8.4864 94.239 7.8197 97.572 6.5 100.5C6.5 93.833 6.5 87.167 6.5 80.5Z" fill="#333132"/>
<path fill-rule="evenodd" clip-rule="evenodd" d="M24.4984 94.5C31.7119 92.888 35.7119 95.721 36.4984 103C35.1802 109.647 31.1802 112.314 24.4984 111C17.9484 105.542 17.9484 100.042 24.4984 94.5Z" fill="#B8D0C0"/>
<path opacity="0.07" fill-rule="evenodd" clip-rule="evenodd" d="M54.5 63.5C54.7914 91.854 54.4581 120.188 53.5 148.5C52.3065 148.03 51.6399 147.03 51.5 145.5C53.1172 118.068 54.1172 90.735 54.5 63.5Z" fill="#3F3B3B"/>
<path fill-rule="evenodd" clip-rule="evenodd" d="M24.4983 126.5C31.1054 124.749 33.6054 127.082 31.9983 133.5C25.5088 137.038 22.6755 135.038 23.4983 127.5C24.165 127.5 24.4983 127.167 24.4983 126.5Z" fill="#77C4A4"/>
<path fill-rule="evenodd" clip-rule="evenodd" d="M24.4989 126.5C27.229 125.183 30.0624 125.183 32.9989 126.5C33.6056 130.537 33.4389 134.537 32.4989 138.5C23.841 139.19 20.841 135.524 23.4989 127.5C22.6761 135.038 25.5094 137.038 31.9989 133.5C33.606 127.082 31.106 124.749 24.4989 126.5Z" fill="#B8E0CB"/>
<path opacity="0.059" fill-rule="evenodd" clip-rule="evenodd" d="M476.5 23.5C477.171 71.736 477.838 120.069 478.5 168.5C477.833 168.5 477.167 168.5 476.5 168.5C476.5 120.167 476.5 71.833 476.5 23.5Z" fill="#AFAEAD"/>
<path fill-rule="evenodd" clip-rule="evenodd" d="M23.4996 149.5C33.1043 147.939 37.2709 151.939 35.9996 161.5C30.9051 167.468 25.5718 167.801 19.9996 162.5C18.539 157.326 19.7057 152.993 23.4996 149.5Z" fill="#BBD3C4"/>
<path opacity="0.016" fill-rule="evenodd" clip-rule="evenodd" d="M53.5015 162.5C53.7724 164.38 53.1057 165.713 51.5015 166.5C51.1583 164.517 51.825 163.183 53.5015 162.5Z" fill="#303030"/>
<path opacity="0.016" fill-rule="evenodd" clip-rule="evenodd" d="M51.5002 166.5C51.715 168.179 51.0483 169.179 49.5002 169.5C49.2854 167.821 49.9521 166.821 51.5002 166.5Z" fill="#3C343B"/>
<path opacity="0.031" fill-rule="evenodd" clip-rule="evenodd" d="M476.5 168.5C477.167 168.5 477.833 168.5 478.5 168.5C478.5 170.5 478.5 172.5 478.5 174.5C477.715 172.626 477.048 170.626 476.5 168.5Z" fill="#1B1A1B"/>
<path opacity="0.01" fill-rule="evenodd" clip-rule="evenodd" d="M49.5 169.5C48.2257 173.727 46.2257 177.394 43.5 180.5C44.2092 176.078 46.2092 172.412 49.5 169.5Z" fill="#1B1B1B"/>
<path opacity="0.016" fill-rule="evenodd" clip-rule="evenodd" d="M478.501 174.5C480.049 174.821 480.716 175.821 480.501 177.5C479.095 177.027 478.428 176.027 478.501 174.5Z" fill="#343434"/>
<path opacity="0.012" fill-rule="evenodd" clip-rule="evenodd" d="M480.5 178.5C482.027 178.427 483.027 179.094 483.5 180.5C481.973 180.573 480.973 179.906 480.5 178.5Z" fill="#342C34"/>
<path opacity="0.02" fill-rule="evenodd" clip-rule="evenodd" d="M43.5002 180.5C43.5732 182.027 42.9065 183.027 41.5002 183.5C41.2854 181.821 41.9521 180.821 43.5002 180.5Z" fill="#3D3838"/>
<path opacity="0.011" fill-rule="evenodd" clip-rule="evenodd" d="M483.5 180.5C486.5 182.833 489.167 185.5 491.5 188.5C487.15 187.483 484.483 184.816 483.5 180.5Z" fill="#201B1B"/>
<path opacity="0.055" fill-rule="evenodd" clip-rule="evenodd" d="M6.4989 100.5C6.2087 130.863 6.8754 161.196 8.4989 191.5C7.731 190.737 7.231 189.737 6.9989 188.5C5.3103 159.014 5.1436 129.681 6.4989 100.5Z" fill="#303030"/>
<path opacity="0.01" fill-rule="evenodd" clip-rule="evenodd" d="M40.5 184.5C40.5 185.5 40.5 186.5 40.5 187.5C39.5 187.5 38.5 187.5 37.5 187.5C38.1667 186.167 39.1667 185.167 40.5 184.5Z" fill="#242424"/>
<path opacity="0.01" fill-rule="evenodd" clip-rule="evenodd" d="M491.5 188.5C494.5 190.833 497.167 193.5 499.5 196.5C495.15 195.483 492.483 192.816 491.5 188.5Z" fill="#1E1C1D"/>
<path opacity="0.01" fill-rule="evenodd" clip-rule="evenodd" d="M29.5 192.5C27.9956 197.779 26.9956 203.112 26.5 208.5C26.5 203.833 26.5 199.167 26.5 194.5C27.5 193.833 28.5 193.167 29.5 192.5Z" fill="black"/>
<path opacity="0.012" fill-rule="evenodd" clip-rule="evenodd" d="M8.5 192.5C9.8333 192.5 10.5 193.167 10.5 194.5C9.1667 194.5 8.5 193.833 8.5 192.5Z" fill="#3B3B35"/>
<path opacity="0.01" fill-rule="evenodd" clip-rule="evenodd" d="M10.5 196.5C10.8333 196.5 11.1667 196.5 11.5 196.5C11.8551 200.077 10.8551 203.077 8.5 205.5C9.1667 202.5 9.8333 199.5 10.5 196.5Z" fill="black"/>
<path opacity="0.013" fill-rule="evenodd" clip-rule="evenodd" d="M499.5 196.5C501.833 198.167 503.833 200.167 505.5 202.5C501.833 202.167 499.833 200.167 499.5 196.5Z" fill="#1E1D1D"/>
<path opacity="0.01" fill-rule="evenodd" clip-rule="evenodd" d="M505.5 202.5C508.5 204.833 511.167 207.5 513.5 210.5C509.483 209.15 506.817 206.483 505.5 202.5Z" fill="#1B1B1B"/>
<path opacity="0.129" fill-rule="evenodd" clip-rule="evenodd" d="M11.5 196.5C12.4511 197.919 12.7845 199.585 12.5 201.5C13.5 201.5 14.5 201.5 15.5 201.5C15.8333 201.5 16.1667 201.5 16.5 201.5C14.5 203.833 12.5 206.167 10.5 208.5C9.8333 208.5 9.1667 208.5 8.5 208.5C8.5 207.5 8.5 206.5 8.5 205.5C10.8551 203.077 11.8551 200.077 11.5 196.5Z" fill="#ABA9A5"/>
<path opacity="0.967" fill-rule="evenodd" clip-rule="evenodd" d="M20.499 198.5C22.4974 339.496 23.1641 480.829 22.499 622.5C18.1657 622.5 13.8323 622.5 9.49897 622.5C9.16747 484.43 9.50077 346.43 10.499 208.5C12.499 206.167 14.499 203.833 16.499 201.5C17.2613 199.738 18.5946 198.738 20.499 198.5Z" fill="#1D1C1B"/>
<path opacity="0.01" fill-rule="evenodd" clip-rule="evenodd" d="M513.5 210.5C515.104 211.287 515.771 212.62 515.5 214.5C513.896 213.713 513.229 212.38 513.5 210.5Z" fill="#1D1D1D"/>
<path opacity="0.01" fill-rule="evenodd" clip-rule="evenodd" d="M516.502 215.5C517.477 218.311 518.144 221.311 518.502 224.5C516.614 222.012 515.947 219.012 516.502 215.5Z" fill="#050505"/>
<path opacity="0.608" fill-rule="evenodd" clip-rule="evenodd" d="M22.5 622.5C23.1651 480.829 22.4984 339.496 20.5 198.5C20.5 198.167 20.5 197.833 20.5 197.5C21.4959 197.586 22.3292 197.252 23 196.5C23.8327 338.667 23.6661 480.667 22.5 622.5Z" fill="#2E2F34"/>
<path opacity="0.075" fill-rule="evenodd" clip-rule="evenodd" d="M8.50001 205.5C8.50001 206.5 8.50001 207.5 8.50001 208.5C8.50001 346.833 8.50001 485.167 8.50001 623.5C9.12291 630.255 8.45631 636.588 6.50001 642.5C6.33331 497.5 6.50001 352.5 7.00001 207.5C7.27841 206.584 7.77841 205.918 8.50001 205.5Z" fill="#151515"/>
<path opacity="0.051" fill-rule="evenodd" clip-rule="evenodd" d="M26.4995 194.5C26.4995 199.167 26.4995 203.833 26.4995 208.5C27.6652 263.44 27.6652 318.44 26.4995 373.5C26.784 375.415 26.4506 377.081 25.4995 378.5C25.1671 316.998 25.5004 255.664 26.4995 194.5Z" fill="#282626"/>
<path opacity="0.087" fill-rule="evenodd" clip-rule="evenodd" d="M518.5 227.5C520.166 329.163 521.166 431.163 521.5 533.5C522.824 538.125 523.824 542.792 524.5 547.5C523.883 547.389 523.383 547.056 523 546.5C522.167 542.5 521.333 538.5 520.5 534.5C519.772 520.663 519.105 506.83 518.5 493C518.565 405.29 518.565 316.79 518.5 227.5Z" fill="#3B3A3A"/>
<path opacity="0.2" fill-rule="evenodd" clip-rule="evenodd" d="M24.5 620.5C24.5 621.5 24.5 622.5 24.5 623.5C19.1667 623.5 13.8333 623.5 8.5 623.5C8.5 485.167 8.5 346.833 8.5 208.5C9.1667 208.5 9.8333 208.5 10.5 208.5C9.5018 346.43 9.1685 484.43 9.5 622.5C13.8333 622.5 18.1667 622.5 22.5 622.5C23.6661 480.667 23.8327 338.667 23 196.5C22.3292 197.252 21.4959 197.586 20.5 197.5C21.287 195.896 22.6203 195.229 24.5 195.5C24.5 337.167 24.5 478.833 24.5 620.5Z" fill="#787A7B"/>
<path opacity="0.067" fill-rule="evenodd" clip-rule="evenodd" d="M26.5 373.5C27.7971 454.764 27.7971 535.93 26.5 617C27.5035 620.505 29.8368 622.005 33.5 621.5C30.7835 622.767 28.1168 622.434 25.5 620.5C25.5 539.833 25.5 459.167 25.5 378.5C26.4511 377.081 26.7845 375.415 26.5 373.5Z" fill="#292323"/>
<path opacity="0.065" fill-rule="evenodd" clip-rule="evenodd" d="M542.5 3.50015C544.993 3.32925 546.826 4.32925 548 6.50015C548.833 188.334 548.666 370 547.5 551.5C547.5 384.5 547.5 217.5 547.5 50.5002C547.5 49.5002 547.5 48.5002 547.5 47.5002C547.667 34.1627 547.5 20.8294 547 7.50015C545.302 6.25945 543.802 4.92615 542.5 3.50015Z" fill="#312F2F"/>
<path opacity="0.01" fill-rule="evenodd" clip-rule="evenodd" d="M524.5 547.5C527.122 548.765 528.788 550.765 529.5 553.5C529.829 566.677 529.495 579.677 528.5 592.5C525.5 590.167 522.833 587.5 520.5 584.5C523.988 585.143 526.488 587.143 528 590.5C528.758 577.141 528.592 563.808 527.5 550.5C526.5 550.5 525.5 550.5 524.5 550.5C524.5 549.5 524.5 548.5 524.5 547.5Z" fill="#171716"/>
<path opacity="0.947" fill-rule="evenodd" clip-rule="evenodd" d="M533.502 555.5C535.169 557.833 537.169 559.833 539.502 561.5C541.502 563.833 543.502 566.167 545.502 568.5C545.669 581.504 545.502 594.504 545.002 607.5C544.331 606.748 543.498 606.414 542.502 606.5C538.835 603.5 535.502 600.167 532.502 596.5C532.173 582.656 532.506 568.99 533.502 555.5Z" fill="#1C1C1B"/>
<path opacity="0.249" fill-rule="evenodd" clip-rule="evenodd" d="M533.498 555.5C532.502 568.99 532.169 582.656 532.498 596.5C531.172 582.661 531.172 568.661 532.498 554.5C533.105 554.624 533.438 554.957 533.498 555.5Z" fill="#7A7576"/>
<path opacity="0.051" fill-rule="evenodd" clip-rule="evenodd" d="M335.5 577.5C314.86 579.489 293.86 580.155 272.5 579.5C273.952 578.698 275.618 578.198 277.5 578C296.83 577.5 316.164 577.333 335.5 577.5Z" fill="#292727"/>
<path opacity="0.997" fill-rule="evenodd" clip-rule="evenodd" d="M483.5 0.499796C483.804 1.1497 484.137 1.8163 484.5 2.4998C486.833 2.8331 489.167 3.1665 491.5 3.4998C494.269 3.4712 496.603 2.8046 498.5 1.4998C504.5 0.166496 510.5 0.166496 516.5 1.4998C524.769 3.4696 533.435 4.1362 542.5 3.4998C543.802 4.9258 545.302 6.2591 547 7.4998C547.5 20.829 547.667 34.1623 547.5 47.4998C546.671 39.677 546.171 31.677 546 23.4998C545.333 22.1665 544.333 21.1665 543 20.4998C542.874 17.0436 541.207 14.7103 538 13.4998C534.961 15.806 533.128 18.806 532.5 22.4998C531.883 22.6105 531.383 22.9438 531 23.4998C530.406 26.8377 529.74 29.8377 529 32.4998C528.502 29.5182 528.335 26.5182 528.5 23.4998C526.784 23.3711 525.117 23.0378 523.5 22.4998C520.5 21.1665 517.5 21.1665 514.5 22.4998C512.422 19.9287 510.256 19.9287 508 22.4998C507.368 20.4685 506.201 18.8018 504.5 17.4998C498.817 18.1749 494.817 21.1749 492.5 26.4998C493.681 37.2085 494.347 48.2085 494.5 59.4998C494.333 68.4998 494.167 77.4998 494 86.4998C493.691 87.7658 493.191 88.9328 492.5 89.9998C492.223 96.8768 492.557 103.877 493.5 111C492.833 111.333 492.167 111.667 491.5 112C491.629 115.955 491.629 120.122 491.5 124.5C492.675 124.281 493.675 124.614 494.5 125.5C495.128 127.258 496.128 128.758 497.5 130C497.043 130.414 496.709 130.914 496.5 131.5C500.554 133.323 504.387 133.323 508 131.5C508.951 118.488 509.951 105.488 511 92.4998C511.68 90.4868 513.013 89.1538 515 88.4998C518.279 90.2978 521.612 90.6308 525 89.4998C524.409 70.4808 524.742 51.481 526 32.4998C526.333 37.4998 526.667 42.4998 527 47.4998C529.384 49.879 530.884 52.7123 531.5 55.9998C533.112 56.7201 534.612 56.5534 536 55.4998C536.991 56.9387 538.324 57.9387 540 58.4998C541.677 56.4746 542.677 54.1413 543 51.4998C544.388 51.7854 545.888 51.4521 547.5 50.4998C547.5 217.5 547.5 384.5 547.5 551.5C546.307 551.97 545.64 552.97 545.5 554.5C546.795 557.379 547.462 560.379 547.5 563.5C544.549 563.713 541.882 563.046 539.5 561.5C537.167 559.833 535.167 557.833 533.5 555.5C533.44 554.957 533.107 554.624 532.5 554.5C531.174 568.661 531.174 582.661 532.5 596.5C535.5 600.167 538.833 603.5 542.5 606.5C543.167 607.5 543.833 608.5 544.5 609.5C546.48 658.351 547.146 707.351 546.5 756.5C471.497 756.167 396.497 756.5 321.5 757.5C317.332 758.662 314.999 761.328 314.5 765.5C308.536 771.965 302.369 778.298 296 784.5C295.517 785.448 295.351 786.448 295.5 787.5C294.448 787.351 293.448 787.517 292.5 788C285.881 795.127 278.881 801.627 271.5 807.5C204.163 807.833 136.83 807.5 69.5 806.5C66.3615 805.38 63.3615 804.046 60.5 802.5C59.8333 801.167 58.8333 800.167 57.5 799.5C56.8333 798.167 55.8333 797.167 54.5 796.5C53.1667 796.5 52.5 795.833 52.5 794.5C51.8333 793.167 50.8333 792.167 49.5 791.5C48.8333 790.167 47.8333 789.167 46.5 788.5C45.8333 787.167 44.8333 786.167 43.5 785.5C42.7659 784.292 42.4326 782.959 42.5 781.5C41.0413 781.567 39.7079 781.234 38.5 780.5C37.8333 779.167 36.8333 778.167 35.5 777.5C34.8333 776.167 33.8333 775.167 32.5 774.5C32.1436 772.81 31.1436 771.81 29.5 771.5C29.0432 769.227 27.7099 767.894 25.5 767.5C24.674 765.736 23.3407 764.402 21.5 763.5C20.7659 762.292 20.4326 760.959 20.5 759.5C19.0413 759.567 17.7079 759.234 16.5 758.5C15.8333 757.167 14.8333 756.167 13.5 755.5C12.8333 754.167 11.8333 753.167 10.5 752.5C10.1808 749.194 8.84748 746.527 6.49997 744.5C5.16667 710.5 5.16667 676.5 6.49997 642.5C8.45627 636.588 9.12287 630.255 8.49997 623.5C13.8333 623.5 19.1667 623.5 24.5 623.5C24.5 622.5 24.5 621.5 24.5 620.5C24.8333 620.5 25.1667 620.5 25.5 620.5C28.1168 622.434 30.7835 622.767 33.5 621.5C33.8333 621.5 34.1667 621.5 34.5 621.5C95.509 622.163 156.176 621.496 216.5 619.5C219.898 619.82 223.232 619.487 226.5 618.5C227.993 617.859 228.993 616.859 229.5 615.5C229.833 615.5 230.167 615.5 230.5 615.5C235.043 613.628 238.71 610.628 241.5 606.5C242.167 606.5 242.5 606.167 242.5 605.5C247.208 602.119 250.875 597.786 253.5 592.5C256.882 589.785 259.882 586.785 262.5 583.5C263.671 582.655 265.005 581.989 266.5 581.5C268.781 581.923 270.448 581.256 271.5 579.5C271.833 579.5 272.167 579.5 272.5 579.5C293.86 580.155 314.86 579.489 335.5 577.5C337.5 576.167 339.5 576.167 341.5 577.5C343.397 578.805 345.731 579.471 348.5 579.5C351.269 579.471 353.603 578.805 355.5 577.5C362.068 576.191 368.734 576.191 375.5 577.5C377.397 578.805 379.731 579.471 382.5 579.5C389.445 578.174 396.445 577.507 403.5 577.5C439.524 578.997 475.857 580.33 512.5 581.5C513.918 583.308 515.918 583.975 518.5 583.5C519.167 583.833 519.833 584.167 520.5 584.5C522.833 587.5 525.5 590.167 528.5 592.5C528.56 593.043 528.893 593.376 529.5 593.5C530.825 580.006 530.825 566.673 529.5 553.5C528.788 550.765 527.122 548.765 524.5 547.5C523.824 542.792 522.824 538.125 521.5 533.5C521.166 431.163 520.166 329.163 518.5 227.5C518.5 226.5 518.5 225.5 518.5 224.5C518.142 221.311 517.475 218.311 516.5 215.5C515.833 215.5 515.5 215.167 515.5 214.5C515.771 212.62 515.104 211.287 513.5 210.5C511.167 207.5 508.5 204.833 505.5 202.5C503.833 200.167 501.833 198.167 499.5 196.5C497.167 193.5 494.5 190.833 491.5 188.5C489.167 185.5 486.5 182.833 483.5 180.5C483.027 179.094 482.027 178.427 480.5 178.5C480.5 178.167 480.5 177.833 480.5 177.5C480.715 175.821 480.048 174.821 478.5 174.5C478.5 172.5 478.5 170.5 478.5 168.5C477.838 120.069 477.171 71.7358 476.5 23.4998C475.432 22.5653 474.099 22.232 472.5 22.4998C472.5 21.8331 472.5 21.1665 472.5 20.4998C474.415 20.7843 476.081 20.4509 477.5 19.4998C478.833 14.4998 478.833 9.4998 477.5 4.4998C477.5 4.1665 477.5 3.8331 477.5 3.4998C479.027 3.5728 480.027 2.9061 480.5 1.4998C481.209 0.595796 482.209 0.262496 483.5 0.499796Z" fill="#DDDBD2"/>
<path opacity="0.039" fill-rule="evenodd" clip-rule="evenodd" d="M403.5 577.5C434.502 577.333 465.502 577.5 496.5 578C501.453 578.995 506.453 579.662 511.5 580C512.056 580.383 512.389 580.883 512.5 581.5C475.857 580.33 439.524 578.997 403.5 577.5Z" fill="#242221"/>
<path opacity="0.101" fill-rule="evenodd" clip-rule="evenodd" d="M403.5 577.5C396.445 577.507 389.445 578.174 382.5 579.5C379.731 579.471 377.397 578.805 375.5 577.5C385.003 576.722 394.336 576.722 403.5 577.5Z" fill="#252524"/>
<path opacity="0.102" fill-rule="evenodd" clip-rule="evenodd" d="M341.5 577.5C346.167 577.5 350.833 577.5 355.5 577.5C353.603 578.805 351.269 579.471 348.5 579.5C345.731 579.471 343.397 578.805 341.5 577.5Z" fill="#2D2C2E"/>
<path fill-rule="evenodd" clip-rule="evenodd" d="M501.501 146.5C520.728 146.614 526.728 155.614 519.501 173.5C509.08 183.417 499.58 182.75 491.001 171.5C487.381 160.012 490.881 151.679 501.501 146.5Z" fill="#B5CCBA"/>
<path fill-rule="evenodd" clip-rule="evenodd" d="M501.5 149.5C518.513 149.659 523.346 157.326 516 172.5C512.398 176.719 507.898 178.219 502.5 177C501.5 175.333 500.5 173.667 499.5 172C497.866 171.506 496.199 171.34 494.5 171.5C490.107 161.843 492.44 154.51 501.5 149.5Z" fill="#D4DDD2"/>
<path fill-rule="evenodd" clip-rule="evenodd" d="M523.5 22.5C522.596 43.8174 522.262 65.1508 522.5 86.5C519.833 86.5 517.167 86.5 514.5 86.5C514.5 65.1667 514.5 43.8333 514.5 22.5C517.5 21.1667 520.5 21.1667 523.5 22.5Z" fill="#AAD0BB"/>
<path fill-rule="evenodd" clip-rule="evenodd" d="M497.5 21.5C500.187 21.3359 502.854 21.5026 505.5 22C506.127 23.7378 506.46 25.5711 506.5 27.5C505.702 60.4895 505.202 93.49 505 126.5C502.333 127.833 499.667 127.833 497 126.5C496.174 91.429 496.341 56.4286 497.5 21.5Z" fill="#B7D1C1"/>
<path opacity="0.045" fill-rule="evenodd" clip-rule="evenodd" d="M483.5 0.5C488.438 1.3924 493.438 1.7257 498.5 1.5C496.603 2.8048 494.269 3.4714 491.5 3.5C489.167 3.1667 486.833 2.8333 484.5 2.5C484.137 1.8165 483.804 1.1499 483.5 0.5Z" fill="#1D1B1B"/>
<path opacity="0.031" fill-rule="evenodd" clip-rule="evenodd" d="M271.5 579.5C270.448 581.256 268.781 581.923 266.5 581.5C267.552 579.744 269.219 579.077 271.5 579.5Z" fill="#282828"/>
<path opacity="0.043" fill-rule="evenodd" clip-rule="evenodd" d="M512.5 581.5C514.626 582.048 516.626 582.715 518.5 583.5C515.918 583.975 513.918 583.308 512.5 581.5Z" fill="#333131"/>
<path opacity="0.475" fill-rule="evenodd" clip-rule="evenodd" d="M545.5 568.5C546.66 581.66 546.827 594.994 546 608.5C545.617 609.056 545.117 609.389 544.5 609.5C543.833 608.5 543.167 607.5 542.5 606.5C543.496 606.414 544.329 606.748 545 607.5C545.5 594.504 545.667 581.504 545.5 568.5Z" fill="#52514C"/>
<path opacity="0.039" fill-rule="evenodd" clip-rule="evenodd" d="M529.5 553.5C530.825 566.673 530.825 580.006 529.5 593.5C528.893 593.376 528.56 593.043 528.5 592.5C529.495 579.677 529.829 566.677 529.5 553.5Z" fill="#4B4749"/>
<path opacity="0.01" fill-rule="evenodd" clip-rule="evenodd" d="M262.5 583.5C259.882 586.785 256.882 589.785 253.5 592.5C254.811 587.856 257.811 584.856 262.5 583.5Z" fill="#1E1E1D"/>
<path opacity="0.999" fill-rule="evenodd" clip-rule="evenodd" d="M310.501 585.5C313.012 585.838 315.346 585.838 317.501 585.5C318.977 587.571 320.977 588.571 323.501 588.5C323.517 594.879 323.683 601.212 324.001 607.5C322.982 608.687 321.815 609.687 320.501 610.5C319.403 609.385 318.236 609.385 317.001 610.5C304.19 605.121 302.024 596.787 310.501 585.5Z" fill="#CCDBCA"/>
<path fill-rule="evenodd" clip-rule="evenodd" d="M335.5 589.5C390.398 589.36 445.398 589.527 500.5 590C501.833 590.333 503.167 590.667 504.5 591C502.966 596.527 503.3 602.194 505.5 608C499.721 609.032 493.888 609.532 488 609.5C444.354 608.811 402.021 608.478 361 608.5C354.886 608.065 349.053 609.065 343.5 611.5C339.191 608.198 334.857 604.864 330.5 601.5C332.874 598.972 333.874 595.972 333.5 592.5C334.552 592.649 335.552 592.483 336.5 592C335.748 591.329 335.414 590.496 335.5 589.5Z" fill="#D0DED3"/>
<path fill-rule="evenodd" clip-rule="evenodd" d="M497.502 593.5C445.168 593.333 392.834 593.5 340.502 594C337.877 596.196 336.877 599.03 337.502 602.5C335.802 598.927 336.469 595.761 339.502 593C392.337 592.168 445.004 592.335 497.502 593.5Z" fill="#ADD6C6"/>
<path opacity="0.01" fill-rule="evenodd" clip-rule="evenodd" d="M253.5 592.5C250.875 597.786 247.208 602.119 242.5 605.5C245.91 600.772 249.577 596.439 253.5 592.5Z" fill="#292929"/>
<path fill-rule="evenodd" clip-rule="evenodd" d="M286.5 590.5C291.709 589.396 294.709 591.396 295.5 596.5C297.59 596.45 298.923 597.45 299.5 599.5C298.901 605.584 296.067 610.25 291 613.5C287.547 611.524 284.047 609.691 280.5 608C281.821 606.455 281.488 605.289 279.5 604.5C278.345 601.554 278.179 598.554 279 595.5C281.492 593.738 283.992 592.071 286.5 590.5Z" fill="#CFDED0"/>
<path fill-rule="evenodd" clip-rule="evenodd" d="M284.5 591.5C291 590.5 292.935 591.375 294 595.5C295.5 601.5 291.001 604 289.001 603.5C278.308 604.737 278 594 284.5 591.5Z" fill="#6AC39F"/>
<path fill-rule="evenodd" clip-rule="evenodd" d="M497.501 593.5C497.501 593.833 497.501 594.167 497.501 594.5C501.187 597.755 501.187 601.255 497.501 605C444.834 605.667 392.168 605.667 339.501 605C338.62 604.292 337.954 603.458 337.501 602.5C336.876 599.03 337.876 596.196 340.501 594C392.833 593.5 445.167 593.333 497.501 593.5Z" fill="#76CDAC"/>
<path fill-rule="evenodd" clip-rule="evenodd" d="M497.502 594.5C500.14 598.141 499.473 601.308 495.502 604C443.835 604.667 392.169 604.667 340.502 604C340.319 601.107 340.653 598.107 341.502 595C393.501 594.5 445.501 594.333 497.502 594.5Z" fill="#46C6A0"/>
<path opacity="0.01" fill-rule="evenodd" clip-rule="evenodd" d="M241.5 606.5C238.71 610.628 235.043 613.628 230.5 615.5C233.452 613.215 236.118 610.548 238.5 607.5C239.417 606.873 240.417 606.539 241.5 606.5Z" fill="#1B1B1B"/>
<path opacity="0.01" fill-rule="evenodd" clip-rule="evenodd" d="M229.5 615.5C228.993 616.859 227.993 617.859 226.5 618.5C223.232 619.487 219.898 619.82 216.5 619.5C216.611 618.883 216.944 618.383 217.5 618C221.723 617.812 225.723 616.979 229.5 615.5Z" fill="#2A2929"/>
<path opacity="0.01" fill-rule="evenodd" clip-rule="evenodd" d="M216.5 619.5C156.176 621.496 95.509 622.163 34.5 621.5C95.069 620.83 155.736 620.163 216.5 619.5Z" fill="#535250"/>
<path opacity="0.061" fill-rule="evenodd" clip-rule="evenodd" d="M547.5 551.5C548.65 620.149 548.817 688.816 548 757.5C546.644 758.38 545.144 758.714 543.5 758.5C470.167 758.5 396.833 758.5 323.5 758.5C397.833 757.833 472.167 757.167 546.5 756.5C547.499 692.335 547.832 628.002 547.5 563.5C547.462 560.379 546.795 557.379 545.5 554.5C545.64 552.97 546.307 551.97 547.5 551.5Z" fill="#2D2A2A"/>
<path opacity="0.133" fill-rule="evenodd" clip-rule="evenodd" d="M539.5 561.5C541.882 563.046 544.549 563.713 547.5 563.5C547.832 628.002 547.499 692.335 546.5 756.5C547.146 707.351 546.48 658.351 544.5 609.5C545.117 609.389 545.617 609.056 546 608.5C546.827 594.994 546.66 581.66 545.5 568.5C543.5 566.167 541.5 563.833 539.5 561.5Z" fill="#B0AEA8"/>
<path opacity="0.022" fill-rule="evenodd" clip-rule="evenodd" d="M6.5 744.5C8.8475 746.527 10.1808 749.194 10.5 752.5C7.9418 750.566 6.6085 747.899 6.5 744.5Z" fill="#1C1B1B"/>
<path opacity="0.01" fill-rule="evenodd" clip-rule="evenodd" d="M10.5 752.5C11.8333 753.167 12.8333 754.167 13.5 755.5C11.5 755.5 10.5 754.5 10.5 752.5Z" fill="black"/>
<path opacity="0.012" fill-rule="evenodd" clip-rule="evenodd" d="M13.5 755.5C14.8333 756.167 15.8333 757.167 16.5 758.5C14.5 758.5 13.5 757.5 13.5 755.5Z" fill="black"/>
<path opacity="0.29" fill-rule="evenodd" clip-rule="evenodd" d="M546.5 756.5C472.167 757.167 397.833 757.833 323.5 758.5C320.26 760.392 317.26 762.726 314.5 765.5C314.999 761.328 317.332 758.662 321.5 757.5C396.497 756.5 471.497 756.167 546.5 756.5Z" fill="#C6C1BB"/>
<path opacity="0.01" fill-rule="evenodd" clip-rule="evenodd" d="M323.498 758.5C396.831 758.5 470.165 758.5 543.498 758.5C470.664 759.167 397.664 759.833 324.498 760.5C321.995 762.584 319.329 764.417 316.498 766C310.273 774.057 303.273 781.224 295.498 787.5C295.349 786.448 295.515 785.448 295.998 784.5C302.367 778.298 308.534 771.965 314.498 765.5C317.258 762.726 320.258 760.392 323.498 758.5Z" fill="#060505"/>
<path opacity="0.086" fill-rule="evenodd" clip-rule="evenodd" d="M16.5 758.5C17.7079 759.234 19.0413 759.567 20.5 759.5C20.4326 760.959 20.7659 762.292 21.5 763.5C19.5 762.167 17.8333 760.5 16.5 758.5Z" fill="#524941"/>
<path opacity="0.01" fill-rule="evenodd" clip-rule="evenodd" d="M21.5 763.5C23.3407 764.402 24.674 765.736 25.5 767.5C23.2273 767.043 21.894 765.71 21.5 763.5Z" fill="#130F0F"/>
<path opacity="0.012" fill-rule="evenodd" clip-rule="evenodd" d="M25.5 767.5C27.7099 767.894 29.0432 769.227 29.5 771.5C27.7356 770.674 26.4023 769.341 25.5 767.5Z" fill="#292929"/>
<path opacity="0.01" fill-rule="evenodd" clip-rule="evenodd" d="M29.5 771.5C31.1436 771.81 32.1436 772.81 32.5 774.5C30.8564 774.19 29.8564 773.19 29.5 771.5Z" fill="#181518"/>
<path opacity="0.01" fill-rule="evenodd" clip-rule="evenodd" d="M32.5 774.5C33.8333 775.167 34.8333 776.167 35.5 777.5C33.5 777.5 32.5 776.5 32.5 774.5Z" fill="black"/>
<path opacity="0.014" fill-rule="evenodd" clip-rule="evenodd" d="M35.5 777.5C36.8333 778.167 37.8333 779.167 38.5 780.5C36.5 780.5 35.5 779.5 35.5 777.5Z" fill="black"/>
<path fill-rule="evenodd" clip-rule="evenodd" d="M253.502 776.5C266.908 776.279 270.241 782.112 263.502 794C251.092 798.664 246.092 794.664 248.502 782C249.654 779.682 251.321 777.849 253.502 776.5Z" fill="#B2CDBA"/>
<path opacity="0.122" fill-rule="evenodd" clip-rule="evenodd" d="M38.5 780.5C39.7079 781.234 41.0413 781.567 42.5 781.5C42.4326 782.959 42.7659 784.292 43.5 785.5C41.5 784.167 39.8333 782.5 38.5 780.5Z" fill="#494745"/>
<path fill-rule="evenodd" clip-rule="evenodd" d="M252.502 779.5C256.009 779.307 259.342 779.973 262.502 781.5C264.925 787.996 262.759 791.663 256.002 792.5C250.775 790.651 249.108 786.985 251.002 781.5C251.719 780.956 252.219 780.289 252.502 779.5Z" fill="#D3E1D6"/>
<path opacity="0.015" fill-rule="evenodd" clip-rule="evenodd" d="M43.5 785.5C44.8333 786.167 45.8333 787.167 46.5 788.5C44.5 788.5 43.5 787.5 43.5 785.5Z" fill="black"/>
<path fill-rule="evenodd" clip-rule="evenodd" d="M78.5013 775.5C91.6833 776.161 95.3503 782.328 89.5013 794C76.3373 798.489 70.837 793.989 73.0013 780.5C74.8132 778.7 76.6463 777.033 78.5013 775.5Z" fill="#BED3C2"/>
<path fill-rule="evenodd" clip-rule="evenodd" d="M228.498 779.5C233.63 779.061 236.297 781.394 236.498 786.5C236.608 788.374 235.942 789.874 234.498 791C226.295 792.626 223.629 789.46 226.498 781.5C227.52 781.145 228.187 780.478 228.498 779.5Z" fill="#B0D0BB"/>
<path opacity="0.01" fill-rule="evenodd" clip-rule="evenodd" d="M46.5 788.5C47.8333 789.167 48.8333 790.167 49.5 791.5C48.5 791.5 47.5 791.5 46.5 791.5C46.5 790.5 46.5 789.5 46.5 788.5Z" fill="black"/>
<path fill-rule="evenodd" clip-rule="evenodd" d="M105.499 779.5C108.205 779.575 110.872 779.908 113.499 780.5C113.664 783.85 113.497 787.183 112.999 790.5C105.533 793.036 102.2 790.369 102.999 782.5C104.044 781.627 104.877 780.627 105.499 779.5Z" fill="#AED2BE"/>
<path fill-rule="evenodd" clip-rule="evenodd" d="M133.5 789.5C132.714 791.735 131.048 792.735 128.5 792.5C126.423 792.308 124.423 791.808 122.5 791C121.833 788.333 121.167 785.667 120.5 783C123.149 780.563 122.483 779.23 118.5 779C120.976 777.691 122.976 775.858 124.5 773.5C127.276 771.87 130.276 771.203 133.5 771.5C133.5 773.167 133.5 774.833 133.5 776.5C136.471 776.435 139.138 777.269 141.5 779C148.55 779.797 155.55 779.63 162.5 778.5C163.5 779 164.5 779.5 165.5 780C173.811 780.408 181.978 780.575 190 780.5C193.727 779.245 197.393 778.245 201 777.5C201.667 778.167 202.333 778.833 203 779.5C206.423 778.04 209.423 776.04 212 773.5C212.333 773.833 212.667 774.167 213 774.5C214.619 772.417 216.619 770.75 219 769.5C220.033 774.065 218.866 777.898 215.5 781C216.276 785.489 216.943 789.989 217.5 794.5C212.547 794.996 208.047 793.996 204 791.5C200.916 794.584 197.416 794.751 193.5 792C179.699 791.52 166.033 791.687 152.5 792.5C146.163 791.573 139.83 790.573 133.5 789.5Z" fill="#D6DED4"/>
<path fill-rule="evenodd" clip-rule="evenodd" d="M208.5 781.5C210.467 781.261 212.301 781.594 214 782.5C214.497 785.146 214.664 787.813 214.5 790.5C206.412 791.489 204.412 788.489 208.5 781.5Z" fill="#67C2A0"/>
<path fill-rule="evenodd" clip-rule="evenodd" d="M142.5 783.5C160.503 783.333 178.503 783.5 196.5 784C197.337 785.011 197.67 786.178 197.5 787.5C179.167 787.5 160.833 787.5 142.5 787.5C142.5 786.167 142.5 784.833 142.5 783.5Z" fill="#B9CFC0"/>
<path fill-rule="evenodd" clip-rule="evenodd" d="M133.501 789.5C126.034 792.578 123.201 790.244 125.001 782.5C131.737 779.96 134.57 782.293 133.501 789.5Z" fill="#70C2A1"/>
<path opacity="0.015" fill-rule="evenodd" clip-rule="evenodd" d="M49.5 791.5C50.8333 792.167 51.8333 793.167 52.5 794.5C50.5 794.5 49.5 793.5 49.5 791.5Z" fill="black"/>
<path opacity="0.01" fill-rule="evenodd" clip-rule="evenodd" d="M54.5 796.5C55.8333 797.167 56.8333 798.167 57.5 799.5C56.5 799.5 55.5 799.5 54.5 799.5C54.5 798.5 54.5 797.5 54.5 796.5Z" fill="black"/>
<path opacity="0.016" fill-rule="evenodd" clip-rule="evenodd" d="M57.5 799.5C58.8333 800.167 59.8333 801.167 60.5 802.5C58.5 802.5 57.5 801.5 57.5 799.5Z" fill="black"/>
<path opacity="0.059" fill-rule="evenodd" clip-rule="evenodd" d="M60.5 802.5C63.3615 804.046 66.3615 805.38 69.5 806.5C136.83 807.5 204.163 807.833 271.5 807.5C204.335 808.499 137.002 808.832 69.5 808.5C65.3938 808.045 62.3938 806.045 60.5 802.5Z" fill="#34302F"/>
<path opacity="0.013" fill-rule="evenodd" clip-rule="evenodd" d="M295.5 787.5C288.828 793.173 282.828 799.506 277.5 806.5C275.833 807.167 274.167 807.833 272.5 808.5C204.668 809.832 137.001 809.832 69.5 808.5C137.002 808.832 204.335 808.499 271.5 807.5C278.881 801.627 285.881 795.127 292.5 788C293.448 787.517 294.448 787.351 295.5 787.5Z" fill="#060505"/>
</svg>
